<?xml version="1.0" encoding="utf-8"?>
<!-- Generator: Adobe Illustrator 27.9.4, SVG Export Plug-In . SVG Version: 9.03 Build 54784)  -->
<svg version="1.1" xmlns="http://www.w3.org/2000/svg" xmlns:xlink="http://www.w3.org/1999/xlink" x="0px" y="0px" width="802.7px"
	 height="981.3px" viewBox="0 0 802.7 981.3" style="enable-background:new 0 0 802.7 981.3;" xml:space="preserve">
<style type="text/css">
	.st0{fill:#E2BAB1;}
	.st1{fill:#FDF0E2;}
	.st2{fill:#E4A063;}
	.st3{fill:#FFFFFF;}
	.st4{fill:#B45C21;}
	.st5{fill:#F9B5B7;}
	.st6{fill:#FECB8A;}
	.st7{fill:#111111;}
	.st8{fill:#E27274;}
	.st9{fill:#FDFBFC;}
	.st10{fill:#B8611F;}
	.st11{fill:#FFAFB1;}
	.st12{fill:#FFEDDF;}
	.st13{fill:#F9B578;}
	.st14{fill:#6B2801;}
	.st15{fill:#FFCD8E;}
	.st16{fill:#FFFBF6;}
	.st17{fill:#BB6122;}
	.st18{fill:#FFFFFC;}
	.st19{fill:#070707;}
	.st20{fill:#DE9A5F;}
	.st21{fill:#DE9A5F;stroke:#DE9A5F;stroke-width:0.6364;stroke-miterlimit:10;}
	.st22{fill:#B3581E;}
	.st23{fill:#BB6A2F;}
	.st24{fill:#EFD8CB;}
	.st25{fill:none;stroke:#000000;stroke-width:8.9096;stroke-linecap:round;stroke-linejoin:round;stroke-miterlimit:10;}
	.st26{fill:none;stroke:#000000;stroke-width:7.6368;stroke-linecap:round;stroke-linejoin:round;stroke-miterlimit:10;}
</style>
<g id="Capa_4">
	<path class="st0" d="M72.7,692.6c-5.5,3.3-8.9,7.4-13.3,12.6c-4.3,5.1-8.5,10.2-10.7,17c-3.3,10-0.6,19.1,0.6,23.2
		c6.4,22.7,8.5,46.5,13.6,69.6c9,40.5,5.8,44.5,14.7,70.1c6.9,20,10.6,30.2,20.4,39c14.4,13,37.2,19.8,57.1,18.1
		c12-1,19.4-4.7,33.9-2.3c7.3,1.2,15.4,3.9,20.9,5.7c10.3,3.3,16.6,6.1,19.8,7.4c18.2,7,37.6,2.3,47,0.6c25.5-4.9,79.4-3.3,187.2,0
		c23.9,0.7,48.1-2.4,71.8,0.6c0,0,19,2.3,35.1-1.1c8.9-1.9,15.3-4.5,15.3-4.5c5-2.1,6.2-3.2,10.2-4.5c5.9-2,10.8-2.2,16.4-2.3
		c12.8-0.2,21.8,0,27.2,0c13.2,0.1,19.8,0.1,27.7-1.1c8.1-1.3,15.7-2.5,24.3-7.4c2.3-1.3,11.1-6.5,18.7-17
		c3.3-4.6,6.6-10.5,10.2-22.6c4.3-14.4,5.1-23.9,6.8-36.2c3.3-23.3,4.7-19.2,12.4-61.7c3.3-18.3,3.3-20.5,5.7-30
		c1.9-7.8,3.9-14.4,5.7-25.5c1.9-11.9,1.6-17.1,0-22.1c-2.3-7.3-6.7-12.3-7.4-13c0,0-2.2-2.4-4.9-4.4
		c-17.6-13.1-64.1-19.5-64.1-19.5c-24.8-3.4-15.4-3.8-50.8-9.3c-8.3-1.3-33.2-5.1-67-8.3c-34-3.2-59.8-4.2-77.4-4.9
		c-35.4-1.3-62.2-1.1-82.6-1c-8.5,0.1-11.4,0.1-87.7,2.4c-41.4,1.2-62.4,1.8-77.5,3.1c-9.9,0.8-28.1,3.1-64.5,7.7
		c-24,3-32.6,4.3-44.4,7.8c-11.5,3.5-14.2,5.5-25.2,7.6C85.5,689,80.4,688,72.7,692.6z"/>
	<path class="st1" d="M252.8,477.6c-0.7-0.9-2.3-4.9-5.2-4.2c-3,0.7-12.2,0-14.8-0.6c-2.6-0.6-8.9-4-8.9-4l-9.1-8.5l-8-13.5
		c0,0,0.1-14.2,0.7-16.8c0.6-2.5,5.7-13.5,7.2-15.1s9.2-9,10-9.5c0.8-0.6-0.6-15.4-0.6-15.4s-0.3-10.6,1.4-11.1
		c1.7-0.6,23.2-13.6,24.3-13.9s36.9-18,36.9-18s29.9-25.7,31.9-27.8s18.4-20,19.1-21.8c0.7-1.7,12-18.6,12-18.6s23.6,27,24,28
		s29.4,25.8,30.1,26.3c0.7,0.5,39.2,19,39.2,19l31.8,5.5l38.5,2.8c0,0,45.2-1.6,47.8-1.7c2.6-0.2,6.4-2.4,5.9,0.4
		c-0.5,2.8-4.2,26-4.2,26s-6.1,22.4-5.9,22c0.2-0.5,11.5,9.4,12.9,10.9c1.4,1.5,8.2,11.3,7.6,13.6c-0.6,2.3-1.7,14.4-1.7,14.4
		s-4.7,4.5-7.7,10.2c-3,5.7-13.2,14.1-13.2,14.1s-16.6,1.4-17.2,2.3c-0.6,1-24.1,30.4-24.4,31.6c-0.3,1.2-45.6,26.1-45.6,26.1
		s-25.9,5.1-26.4,6.6c-0.4,1.6-31.5,3.1-31.5,3.1s-27.8,0.9-29.2,1.1c-1.4,0.2-23.3-3.8-23.3-3.8l-13.4-1.4c0,0-9.9-2.6-15.6-3.4
		c-5.7-0.8-14.7-4.7-14.7-4.7l-12.5-5.7l-13.5-8.6c0,0-7.6-7.1-11.6-10.2s-7.6-7.1-10.7-10.2S252.8,477.6,252.8,477.6z"/>
	<path class="st2" d="M223.5,374.5c0-1.9,0.8-19.2,0.4-21.3c-0.3-2.1,3.2-21.3,4.1-23c0.8-1.7,6.3-25.1,7.3-26.9
		c0.9-1.8,15.7-19.1,18-21.2c2.3-2.2,37.3-18.1,38.5-19.8c1.2-1.6,56.8-15.8,56.8-15.8s51.9-8,53.8-6.9c1.9,1.1,59.6,4.9,61.1,6.4
		c1.5,1.5,51.8,22.7,54,22.5c2.2-0.2,33.5,21.7,35.8,25c2.3,3.4,6.4,17.2,6.4,17.2l4.1,16.6c0,0,19.5,2.9,20.8,5.4
		c1.4,2.6,17,16.5,18.1,17.9c1.1,1.4,12.8,21.3,12.8,21.3s2.4,19.6,3.1,26c0.7,6.4,1.1,17.3-1.5,23.8c-2.6,6.4-7.2,22.6-7.2,22.6
		l-14.3,20.5c0,0,3.5,10.8,3.6,10.8c0.1,0,0,15.2-2.1,16.4c-2.2,1.2-18.8,17.7-18.8,17.7l-33.3,13.9l-22.2-4.8l-13.6-3.7l-4.7-5.4
		c0,0,22.8-19,23.9-21.6c1.1-2.6,4.9-11.3,7.9-12.6s15.5-5.5,17-6.3c1.5-0.8,18.5-14.3,18.5-14.3l3.8-18.1l-2.4-14.5l-6-9.4
		c0,0-10.8-6-9.3-7.4c1.5-1.5,7.5-21.1,7.2-23.9s0-23.4,0-23.4s-19.6,2.5-21.8,2.1c-2.3-0.4-36.6-0.4-36.6-0.4s-32.8-2.4-33.4-2.3
		c-0.6,0.1-26.8-4.4-26.8-4.4l-17.2-5.7c0,0-7.2-3-11.7-5.3s-6.8-5.8-13.6-8.9c-6.8-3.2-6.4-3.2-10.9-6.9c-4.5-3.8-4.1-3.4-8.7-7.9
		c-4.5-4.5-6.6-6.7-10.5-11.5s-6.5-8.1-10.7-11.9c-4.1-3.8-15.6-18.2-15.4-16.1c0.3,2.1-29,40.4-29,40.4L286.9,347l-31.6,16.6
		l-23,10.6L223.5,374.5z"/>
	<path class="st0" d="M238.7,293.1c-1.9-0.4-9.2-0.6-9.2-0.6s4.6-21.4,3.7-24.9s5.5-44.4,5.5-44.4s-12.1-5.4-13.7-6.5
		c-1.6-1-17.1-14.3-18.1-16.5c-1-2.2-8.7-15.6-8.7-15.6s-4.4-16.1-4.8-21c-0.4-4.9-1.1-10.2-1.1-15.8c0-5.7,8.5-29.4,9.5-31.2
		c1.1-1.7,19.3-19.4,19.3-19.4l23.3-9.8c0,0,21.2,7.3,21.3,5.6c0.2-1.7,2.7-24.8,3.4-26.3C270,65.3,286.9,43,286.9,43
		s18-8.6,19.2-8.7c1.2,0,23.1,1,25.2,0.5s13,4,13,4l3.4,6.5l12.5-14.5L385,17.7h29.4l18.2,9.4l14.9,12.6l4.9,6.4l11.9-7.8l19.9-3.6
		c0,0,19.7,6.6,22,6.8c2.2,0.3,17.1,15.3,17.1,15.3l9.3,17.5c0,0,2.7,22.3,4.3,20.3c1.7-2,20.1-3,21.6-2.8
		c1.5,0.2,25.2,10.7,26.2,11.6c1,0.9,15,22.3,15.4,23.3c0.4,1,6.1,25.4,6.2,26.6s-2.2,24.9-2.5,26.2c-0.4,1.3-14.4,26.7-14.4,26.7
		s-12.2,11.1-14.2,12.2s-21.8,8.4-21.2,10s4.9,27.7,5.3,30.7s4.9,19.9,3.8,21.8c-1.1,1.9-1,9.6-1.9,10.8c-0.9,1.2-7.5,4.3-7.9,1.7
		c-0.4-2.6-12.1-14.8-12.8-14.6c-0.8,0.2-23-10.5-23-10.5l-17.8-7.8l-18.1-6.4l-11.3-4.1l-17.4-3.8l-20.4-2.6l-15.5-0.4
		c0,0-12.1-1.1-18.5-0.8c-6.4,0.4-19.2,0.4-19.2,0.4s-10.9-0.4-18.1,1.1c-7.2,1.5-12.4,2.3-19.6,3.8s-11.7,2.6-19.6,4.5
		c-7.9,1.9-20.4,6-20.4,6l-19.2,6.4l-17.3,8.7L250,284.4L238.7,293.1z"/>
	<path class="st3" d="M582.7,133c-2.2-15.1-11.1-29.4-21.3-40.4c-2.8-3-7.3,1.5-4.5,4.5c8.8,9.5,16.2,21.5,19.1,34.2
		c2.6,11.7-1.3,22.9-10.7,30.3c-9.5,7.5-22.3,9-33.8,6.2c-12.4-3-23.1-10.3-32.1-19.2c-4.2-4.2-8.7-8.6-11.7-13.8
		c-1.5-2.6-2.8-5.8-1.8-8.9c0.9-2.7,3.4-4.7,5.1-6.9c2.6-3.5,3.8-8.6,1.2-12.5c-3.2-4.7-9.2-3.1-12.7,0.3c-4.1,4-7.2,8.9-11.3,13
		c-4,4-8.4,7.6-13.1,10.8c-9.6,6.6-20.3,11.4-31.6,14.2c-27,6.6-56,0.3-78.4-16c-0.1-0.1-0.3-0.2-0.4-0.2c0,0,0,0-0.1-0.1l-20-22.5
		c-2.3-2.6-4.9-6.6-8.8-6.9c2.1-3.5,4.1-7,6.2-10.6c0.6,1,1.6,1.5,2.8,1.4c1,2,3.1,3.2,5.2,2.3c0.6,1.7,1.3,3.3,2,5
		c0.7,1.7,3,1.8,4.4,1.1c4.7-2.3,6.1-9,7.4-13.6c1.6-6,2.6-12.2,2.7-18.5c0.1-5-3.3-8.9-8.4-6.7c-0.5,0.2-0.9,0.4-1.3,0.7
		c-0.3-0.5-0.7-1-1.2-1.3c-1.9-1.7-4.7-1.9-6.9-0.5c-2.3,1.5-3.3,4.5-4.2,7c0,0.1-0.1,0.2-0.1,0.3c-0.7,0.4-1.4,0.9-2,1.4
		c-0.1,0.1-0.1,0.1-0.2,0.2l3.1-5.6c1.3-2.3-0.9-5.6-3.6-4.7c-1.5,0.5-2.9,1.3-4.2,2.2c0.1-0.3,0.2-0.7,0.3-1
		c0.7-2.9-2.2-4.7-4.5-3.6c1.4-2.6-0.9-5.1-3.6-4.7c-0.1,0-0.2,0-0.2,0c0.4-1.8-0.7-3-2.2-3.3c0.8-2.7-1.7-5.5-4.5-3.9
		c-0.2,0.1-0.4,0.3-0.7,0.4c-0.9-1.2-2.4-1.8-4-0.8c0,0-0.1,0-0.1,0.1c0,0-0.1,0-0.1,0c-0.7-0.6-1.7-0.9-2.8-0.6
		c-8,2.4-14.2,9.3-15.8,17.3c-0.5,1-1,2.1-1.5,3.1c-0.2,0.3-0.3,0.7-0.5,1c-2.4,2.4-3.8,5.3-5,8.6c-1.8,5-3.3,10.2-4.5,15.4
		c-0.8,3.3-1.5,6.7-2.1,10.1c-0.9-0.9-2.4-1.4-3.6-0.9c-0.2-0.3-0.4-0.6-0.7-0.9c-0.2-0.2-0.4-0.4-0.6-0.5c-0.3-0.9-0.6-1.8-1.1-2.7
		c-0.3-0.5-0.8-0.9-1.3-1.2c0-0.2,0-0.3,0-0.5c0-3.2-4.3-4.3-5.9-1.6c-0.3,0.5-0.5,0.9-0.8,1.4c-0.9-1.9-3.4-2.9-5.1-1.1
		c-0.9,0.9-1.6,1.9-2.3,2.9c0,0,0,0-0.1,0c-0.4-0.5-1-0.8-1.6-1c-0.4-0.6-1.1-1.1-1.8-1.3c-1.9-0.7-3.5,0-4.7,1.2
		c-1.5-1-3.5-0.7-4.5,1c0,0,0,0.1-0.1,0.1c-2,0.4-3.5,1.9-4.6,3.7c-1.2-1.8-4.1-2.5-5.4,0c-8.2,15.2-14.4,33.1-8.2,50.1
		c5.6,15.3,18.3,25.6,34.5,27.9c15.2,2.2,31-1.2,44.2-9c6.3-3.7,12.1-8.5,16.8-14.1c4.9-5.9,10.4-13.5,10.1-21.5
		c-0.2-4.5-1.9-8.7-3.3-13c-0.7-2.1-1.4-4.3-1.4-6.6c0-0.9,0-2,0.3-2.8c0.8-2,1.3-1.6,2.6-0.3c4.2,4,7.8,8.8,11.6,13.1
		c3.9,4.4,7.8,8.7,11.6,13.1c0.4,0.4,0.8,0.7,1.2,0.9c0.1,0.2,0.3,0.3,0.5,0.4c21,15.3,47.7,22,73.5,18.5
		c23.9-3.3,46.5-15.6,62.3-33.9c1.9-2.2,3.6-4.7,5.6-6.9c0.6-0.6,2.3-2.8,3.5-2.1c0.8,0.5,0.5,2.2,0.3,2.9c-0.7,2.5-3.1,4.5-4.7,6.5
		c-1.8,2.4-3,5-3.2,8.1c-0.4,6.2,3.3,11.8,7.1,16.3c4,4.9,8.5,9.5,13.2,13.6c18.6,16.2,47.7,26,69.3,9.4
		C579.4,158.7,584.6,146.3,582.7,133z M338.4,67.5c0.2-0.2,1.3-1.2,1.8-1.8c0,0.1,0,0.1,0,0.2c0,0.8,0,1.6-0.1,2.4
		c-0.1,1.2-0.1,2.4-0.3,3.6c-0.3,2.7-0.7,5.3-1.3,8c-0.6,2.5-1.3,5-2.1,7.4c-0.2,0.7-0.4,1.4-0.7,2.2c-0.4-1.1-0.8-2.2-1.1-3.3
		c0.3-0.8,0.5-1.5,0.7-2.2c1-3,1.7-6.1,2.1-9.3C337.9,72.6,338.3,70,338.4,67.5C338.3,67.5,338.3,67.5,338.4,67.5z M247.3,167.7
		c0-0.1-0.1-0.2-0.1-0.3c0.3,0.1,0.5,0.3,0.8,0.4c0,0,0.1,0,0.1,0.1C247.8,167.8,247.5,167.8,247.3,167.7z M260.2,146.6
		c-0.1,0-0.1,0-0.2,0c0.3-1.3,0.7-2.6,1-3.9c0.2-0.8,0.4-1.7,0.7-2.5c0,0,0.1,0.1,0.1,0.1C261.2,142.5,260.7,144.5,260.2,146.6z
		 M312.7,89.1c0.1-0.1,0.1-0.3,0.2-0.4c0.2-0.3,0.4-0.5,0.6-0.8c1.3-1.8,2.7-3.6,4.1-5.3c-0.4,0.8-0.9,1.5-1.3,2.3
		C315,86.3,313.8,87.7,312.7,89.1z"/>
	<path class="st3" d="M574.7,109c-3-5-6.5-9.8-10-14.5c-2.1-2.9-6.7-0.7-6,2.1c-3-2.5-6.7-4.1-11.3-4c-3.5,0-7,0.7-10.4,1.7
		c-0.5-3.4-1.5-6.7-3-9.9c0-1.3-0.1-2.6-0.2-3.8c-0.1-2.5-2.5-3.5-4.4-2.9c-0.2-0.1-0.5-0.2-0.8-0.2c-0.1-0.8-0.2-1.5-0.4-2.2
		c-1.6-10.1-6.6-19.5-14-26.4c-0.2-0.3-0.5-0.5-0.7-0.7c-1-0.9-2-1.7-3-2.4c0.5-2.5-2.5-4.6-4.7-3.3c-0.1,0-0.1,0.1-0.2,0.1
		c-0.6-0.3-1.2-0.7-1.9-1c-0.6-1.1-2-1.7-3.4-1.4c-7.4-2.9-15.5-3.8-23.4-2.6c-8.7,1.3-16.5,5.4-23.8,10.1c-2.5-3.7-5.8-7-8.8-9.8
		c-6.3-6-13.6-11-21.7-14.2c-8.3-3.2-17.7-4.1-26.3-2.1c-0.8-0.2-1.7-0.4-2.6-0.6c-9.1-1.4-17.1,2.9-24.1,8.2
		c-5.3-0.1-9,5.7-11.8,9.7c-0.9,1.3-1.7,2.6-2.5,3.9c-1.8,2.1-3.5,4.4-5,6.8c-0.9-1.5-2.9-2.4-4.4-1.2c0.1-0.4,0.2-0.7,0.3-1.1
		c0.7-2.7-3-5.5-5.1-3.3c-0.7-0.4-1.5-0.6-2.2-0.5c-0.2-1.6-1.6-3.1-3.1-3.2c-0.5-0.4-1-0.6-1.6-0.7c-0.5-2.2-3.8-3.6-5.4-1.6
		c-0.3,0.3-0.6,0.7-0.9,1c-0.2-0.1-0.5-0.2-0.8-0.3c0-2.1-2.3-4.1-4.2-3.4c-1.1-0.9-2.9-1-4.1,0.2c-0.5,0.5-1,1.1-1.5,1.6
		c-1-0.9-2.5-1.2-3.8-0.3c-1.1-0.9-2.8-1.1-4,0.2c-0.5,0.5-0.9,1-1.4,1.6c-0.4-0.3-0.9-0.5-1.5-0.6c-1.1-1-3-1.3-4.3,0
		c-0.4,0.3-0.7,0.7-1.1,1.1c-1.1-0.3-2.4,0-3.3,0.7c-3.3,2.7-6.4,5.7-9.2,8.9c-6.5,3.2-10.7,11.9-13.4,17.9c-2,4.4-3.6,9-4.8,13.7
		c-0.5,2-1,4.1-1.2,6.2c-0.5,2.6-0.9,5.2-1.1,7.9c-0.1,0.1-0.2,0.1-0.3,0.2c-0.7-0.2-1.5-0.1-2.2,0.3c-0.5,0.3-1,0.6-1.6,0.9
		c-0.6-1.8-2.9-3-4.6-1.8c-0.1,0-0.1,0.1-0.2,0.1c-0.4-2-3-3.5-4.8-2.2c-0.5,0.4-1.1,0.8-1.6,1.2c-0.4-0.2-0.7-0.4-1.1-0.5
		c-0.6-0.9-1.6-1.5-2.7-1.5c0.2-2.4-2.3-4.6-4.7-3.1c-0.8,0.5-1.6,1-2.4,1.5c-0.7-0.1-1.4-0.1-2.1,0.3c-1.5,0.8-3,1.7-4.5,2.7
		c-0.9-0.6-2.1-0.8-3.4-0.2c-1.5,0.7-3,1.8-4.5,3.1c-2,1.3-3.8,2.8-5.3,4.6c-0.8,0-1.6,0.2-2.3,0.9c-13.8,13.9-15.2,37-4.4,53.2
		c11.7,17.3,33.1,24.9,53.3,21.7c19.9-3.2,42.3-17.3,48.1-37.6c1.5-5.3,1.5-10.8,0.5-16.2c-0.6-3.2-1.4-6.3-2.3-9.4
		c-0.3-1.1-1.1-2.5-1-3.7c0-0.1,0-0.2,0-0.2c0,0,0.1,0,0.1,0c0.6,0,1.3,0.7,1.8,1.1c1.8,1.5,3,3.6,4.4,5.4c1.6,2.2,3.4,4.3,5.2,6.3
		c3.4,3.8,7.1,7.3,11,10.5c16,13,35.7,21.2,56.3,22.9c20.6,1.7,41.7-3.7,59.4-14.3c8.8-5.3,17-12,23.8-19.7
		c0.8-0.9,8.8-11.6,10.1-8.5c0.4,1.1-3.7,4.4-4.4,5.2c-1.5,1.8-2.6,4-3.3,6.3c-2.9,10.5,3.5,20.1,10.7,27
		c7.9,7.5,16.8,14.5,26.6,19.3c17.5,8.7,39.2,10.1,55.2-2.7C589.7,152.3,585.4,127,574.7,109z M217.9,143.9
		C217.9,143.9,217.9,143.9,217.9,143.9c0.4,0.6,0.8,1.1,1.3,1.5c0.1,0.2,0.2,0.4,0.3,0.6c0,0.5,0.1,1.1,0.2,1.6
		C219,146.4,218.4,145.1,217.9,143.9z M259.3,128.6c0.3-0.7,0.5-1.5,0.8-2.2c0.2,0.3,0.4,0.6,0.7,0.8
		C260.4,127.6,259.8,128.1,259.3,128.6z M272.4,157.6c-0.2,0.1-0.4,0.2-0.6,0.3c0.2-0.3,0.3-0.6,0.5-0.8c0.1,0,0.1,0.1,0.2,0.1
		C272.5,157.2,272.4,157.4,272.4,157.6z M290.8,71c-1.4,2.5-2.7,5-3.9,7.5c-0.1,0-0.2,0-0.3-0.1c1.7-3.1,3.4-6.2,5.1-9.3
		C291.4,69.7,291.1,70.4,290.8,71z M295.1,78.4c-0.2-0.1-0.4-0.3-0.6-0.4c0.6-1.3,1.2-2.6,1.9-3.9c0.6-1.1,1.3-2.3,1.9-3.4
		c0.3-0.5,0.6-1.1,1-1.7C297.9,72.1,296.5,75.2,295.1,78.4z M315.9,101.9c0.1-0.1,0.3-0.2,0.4-0.3c0.2,0.2,0.3,0.4,0.5,0.6
		C316.5,102.1,316.2,102,315.9,101.9z M386.2,139.2c-1.1-0.2-2.2-0.5-3.2-0.8c2.2,0.5,4.5,0.9,6.7,1.4c0.3,0.1,0.5,0.1,0.8,0.2
		C389,139.8,387.6,139.5,386.2,139.2z"/>
	<path class="st3" d="M502.1,220.2c-0.1-1-0.5-2.3-1.6-2.7c-25.1-10.7-52.1-15.5-79.2-16.6c-27.5-1.2-55.5,0.6-82.7,5.4
		c-15.8,2.8-31.3,6.8-46.3,12.4c-1.3,0.5-2.4,1.6-2.3,3.1c0.3,12.5,0.3,25,0,37.5c-0.1,4.1,6.3,4.1,6.4,0c0-0.3,0-0.6,0-0.9
		c0.4,0,0.9-0.2,1.3-0.4c20.8-11,44.9-14.7,68.2-18.7c1.2,0.7,2.8,0.5,3.8-0.4c0.8,1.6,2.9,1.7,4.4,0.8c0.3,0.3,0.7,0.4,1.1,0.6
		c0.8,3.1,6.4,2.3,6.2-1.2c0.5-0.2,0.9-0.5,1.3-0.9c0.1,0.2,0.3,0.3,0.5,0.4c0,0.2,0,0.4,0,0.7c0.2,3.9,5.7,4.1,6.3,0.5
		c1.5,0.3,3.1-0.3,3.6-1.9c0,0.6,0.1,1.2,0.1,1.9c0.1,3.3,4,3.9,5.6,2c1.8,1,4.8,0,5.1-2.7c0.1-1,0.2-2,0.4-3c0,0.3,0,0.6,0,0.9
		c0.2,3.9,5.5,4.1,6.3,0.6c1.5,2.1,5.4,1.6,5.8-1.5c0.1,0,0.1,0.1,0.2,0.1c0,0.1,0,0.1,0,0.2c0.2,3.5,4.3,4,5.8,1.6
		c0,0.2,0.1,0.5,0.1,0.7c0.4,2.4,3,2.8,4.7,1.7c0.8,0.4,1.9,0.4,2.7,0c0.7,0.7,1.8,1,2.9,0.8c0.8,2.5,4.4,2.7,5.7,0.6
		c1,1.6,3.3,1.8,4.7,0.7c0.7,0.3,1.5,0.3,2.2,0.1c0.7,0.9,1.8,1.3,2.8,1.2c1.4,2.2,5.3,1.8,5.8-1.3c0.2,0.1,0.3,0.1,0.5,0.1
		c0,0.4,0,0.9,0,1.3c-0.1,2.4,2.1,3.4,4,3c1.3,0.8,3.1,0.7,4.1-0.4c0.3-0.1,0.7-0.2,1-0.3c0.7,0.2,1.5,0.2,2.2-0.1
		c0.1,0,0.3,0.1,0.4,0.1c0,0.5,0,0.9,0,1.4c0,3.4,4,3.9,5.7,1.8c0.6,1.1,1.7,1.6,2.9,1.6c0.7,2.4,3.8,2.8,5.4,1.1
		c1,2.3,4.6,2.2,5.8-0.2c0.1,0,0.2,0,0.3,0c0.9,1,2.4,1.4,3.6,0.9c1.1,0.9,2.8,0.9,4,0.1c0.1,0,0.1,0.1,0.2,0.1l0,0.3
		c0.1,1.9,1.6,2.9,3.1,3c0.1,3.8,6.2,3.7,6.4-0.3C503.9,244.1,503.4,232.1,502.1,220.2z M385.6,212.6c-0.1,0-0.2-0.1-0.3-0.1
		c0-0.3-0.1-0.6-0.1-0.9c0,0,0-0.1,0-0.1c0.6,0,1.1,0,1.7,0C386.3,211.8,385.9,212.1,385.6,212.6z M395,212.1
		c-0.3-0.1-0.6-0.1-0.8-0.1c0-0.2,0-0.3-0.1-0.5c0.4,0,0.7,0,1.1,0C395.1,211.7,395.1,211.9,395,212.1z"/>
	<path class="st4" d="M563.7,349.3c-1.5-14.5-4.2-28.9-8.4-43c-1.8-6-3.7-12.3-7.6-17.3c-4.1-5.2-10.2-7.6-16.4-9.6
		c-0.4-0.1-0.8-0.2-1.2-0.2c-1.1-2.6-2.3-5.1-3.6-7.5c-2-3.6-7.5-0.4-5.5,3.2c6.3,11.6,10,25.9,8.2,39.2c-0.7,5-2.6,10.7-7.2,13.5
		c-5.7,3.4-14,2.3-20.3,1.8c-28-2.3-54.3-14.1-77.2-29.9c-12.9-8.9-24.9-19.2-36.2-30c-2.6-2.5-6.8,0.7-5,3.9
		c9.9,17.4,22.8,32.8,36.3,47.5c6.8,7.4,13.6,14.8,20.7,21.8c6.7,6.6,14.3,13.3,23.9,14.7c1.8,0.3,3.1-0.8,3.7-2.1
		c1.5,0.6,3,1.3,4.5,1.8c2.1,0.8,3.5-0.7,3.8-2.4c4.9,2.5,10.1,4.4,15.7,5.4c2.4,0.4,4-1.6,4-3.4c2,0.2,4.1,0.2,6.1,0.3
		c6.7,0.2,13.3,0.4,20,0.4c13.4,0.1,26.7-0.5,40-2C565.2,354.9,565.8,350.6,563.7,349.3z"/>
	<path class="st4" d="M344.2,273.3c-0.4-0.9-1.1-1.7-1.9-2c0-0.2,0-0.3,0-0.5c0.2-1,0.3-2,0.3-3c0-2-2-3.4-3.8-3.1
		c0.3-1.1,0.6-2.2,0.9-3.2c1-4-5.1-5.7-6.1-1.7c-10.4,40-41.4,70-76.2,90.3c-10.4,6.1-21.2,11.4-32.2,16.3c-3.7,1.7-0.5,7.2,3.2,5.5
		c0.8-0.4,1.6-0.7,2.5-1.1c0.7,0.7,1.7,1.1,2.9,0.8c19.9-4.7,37.6-15.4,53.6-27.8c11.6-9,22.3-19.1,31.8-30.2c0.6-0.1,1.2-0.4,1.7-1
		c5.1-5.8,10.1-11.7,14.9-17.7c4.3-5.3,9.5-10.8,11.4-17.5C347.8,275.3,346.1,273.4,344.2,273.3z"/>
	<path class="st4" d="M477.8,277.8c0.4-1.1,0.2-2.5-0.7-3.3c-3.4-2.8-9.8-7.6-14.1-3.8c-4,3.5-2,9.7,2.1,12.2
		c3,1.9,12.9,3.7,13.6-1.6C478.9,279.9,478.5,278.8,477.8,277.8z"/>
	<path class="st4" d="M512.6,290c0.1-0.8-0.2-1.6-0.8-2.3c-3.2-3.8-10.5-9.3-15.2-4.9c-4.5,4.2-1.7,10.4,2.7,13.2
		c3.5,2.2,11.6,5.6,14.4,0.7C515.3,294,514.4,291.8,512.6,290z"/>
	<path class="st4" d="M571.9,338.9c-2.7-3.1-7.2,1.5-4.5,4.5c0.9,1,1.8,2.1,2.7,3.2c-1.3,0.6-2.2,1.9-1.7,3.6
		c4.1,13.6-0.9,27.3-4.5,40.4c-1.5,5.4-4.5,13.1-1.8,18.5c1.3,2.6,3.6,4.6,5.6,6.6c2.5,2.5,4.9,5.1,7.4,7.6c0.5,0.5,1,0.8,1.5,0.9
		c-1,3.3,3.9,6,5.8,2.6C597.7,398.3,593.5,363,571.9,338.9z"/>
	<path class="st4" d="M594.5,478.5c-17,13.7-42.1,16-61.4,5.8c-2.5-1.3-4.7,0.8-4.8,2.9c-0.4,0.3-0.7,0.6-0.9,1.1
		c-2.4,4.3-5.2,8.3-8.6,11.9c-1.7,1.7-3.5,3.4-5.4,4.9c-1.7,1.4-3.9,2.5-5.1,4.5c-5.7,9.5,12.8,12.5,18.1,13.3
		c19.6,2.8,39.5-2.9,54.6-15.6c7.9-6.7,14.3-15.3,18.5-24.8C600.9,479,597.4,476.1,594.5,478.5z"/>
	<path class="st5" d="M396.5,442.7c-4-4-10.8-1.6-12.1,3.7c-0.7,2.9,0.4,6,2.8,7.7c2.3,1.6,5.1,1.6,7.5,0.5c0.6-0.3,1-0.7,1.2-1.3
		C399.1,451,399.3,445.7,396.5,442.7z"/>
	<path class="st5" d="M523.5,457c-4.2-4.9-9.2-9.7-15.6-11.3c-6.2-1.5-12.8,0.3-18.1,3.7c-5,3.3-10.2,8.4-11.9,14.4
		c-2,7,2.1,13.3,6.4,18.6c2.1,2.5,5.3,0.2,5.3-2.5c2.1,0,4.4-1.3,6.5-3c0.8,0.3,1.8,0.3,2.7-0.2c4.4-2.3,8.5-5.1,12.4-8.2
		c0,0,0,0,0,0c0.7-0.5,1.3-1,2-1.6c0.9-0.6,1.7-1.3,2.3-2.1c0.3-0.2,0.4-0.5,0.6-0.8c0.7-1.1,1.3-2.4,1.5-3.8c0-0.1,0-0.2,0-0.3
		c0.5,0.6,1,1.1,1.4,1.7C521.7,464.6,526.2,460.1,523.5,457z"/>
	<path class="st5" d="M308.3,462.1c-1-7-5.4-12.1-11.7-15c-5.9-2.7-12.2-3.8-18.4-1.5c-6.2,2.4-11.2,7.1-15.8,11.8
		c-2.8,3,1.7,7.5,4.5,4.5c0.1-0.1,0.3-0.3,0.4-0.4c0,0.3,0,0.6,0,0.9c0.3,3.5,5,6.8,7.5,8.8c7,5.5,15.5,8.7,23.7,11.8
		c0.3,0.1,0.5,0.2,0.7,0.2c1.4,1.2,3.6,1.4,4.6-0.8C306.7,476,309.3,469.2,308.3,462.1z M289.2,455.1c-0.1-0.1-0.3-0.2-0.4-0.3
		c0-0.1-0.1-0.2-0.1-0.3c0.3,0,0.7,0.1,1,0.1C289.5,454.8,289.4,454.9,289.2,455.1z"/>
	<path class="st5" d="M565,365.8c0.2-1.6-0.9-2.6-2.3-3c-1.1-0.9-2.9-1-4-0.2c-1.1-1.2-3.2-1.3-4.5-0.2c-0.6-0.1-1.2,0-1.7,0.2
		c-1.3-1.4-3.6-1.7-4.9,0.5c-0.1,0.2-0.2,0.4-0.3,0.6c-1.1-0.5-2.5-0.5-3.4,0.3c-1.4-0.7-3.6-0.4-4.6,1c-0.1,0.1-0.1,0.2-0.2,0.4
		c0,0,0,0,0,0c-1-2-4.2-2-5.6-0.1c0,0-0.1,0.1-0.1,0.1c-0.8-1-2.3-1.3-3.6-0.9c-1-1.7-3.6-1.8-5-0.5c-1.1-0.9-2.7-0.8-3.9,0
		c-1.1-1.9-4.1-2.1-5.5,0c0,0-0.1,0.1-0.1,0.1c-0.1,0-0.1-0.1-0.2-0.1c-0.4-0.2-0.9-0.3-1.3-0.4c-0.8-2.5-4.1-3.2-5.7-0.7
		c-0.5,0.7-0.9,1.4-1.4,2.1c-0.4,0.3-0.6,0.6-0.7,0.9c-1.4-0.2-2.8,0.6-3.4,1.7c-0.3-0.1-0.7-0.1-1-0.2c-0.4-0.6-1-1.1-1.9-1.3
		l-25.3-4.6c-3-0.5-7.7-2.4-10.6-1.3c-0.9,0.3-1.5,0.9-1.9,1.5c-11.9-3.7-23.7-7.8-35.2-12.7c-11.9-5-21.8-13.1-32-20.7
		c-0.7-0.5-1.4-0.7-2-0.6c-5.8-5.7-11.5-11.4-17.3-17.1c-1.2-1.2-2.7-1.1-3.8-0.4c-3.4-3.8-6.8-7.6-10.2-11.4c0,0-0.1-0.1-0.1-0.1
		c0.5-0.8,1-1.5,1.5-2.3c2-3.1-2.3-6.1-4.8-4c-0.3-1.1-1.2-1.9-2.3-2.1c-0.1-1-0.6-1.8-1.4-2.3c-0.5-1.6-2.1-2.9-3.8-2.2
		c-0.2,0.1-0.3,0.1-0.5,0.2c-0.3,0-0.5,0.1-0.8,0.1c-1.7,0.7-2.9,1.6-3.6,3c-1.9,1.8-2.9,4.1-3.2,6.8c-2.6-2.1-6.3,2-4,5
		c0.1,0.1,0.2,0.2,0.3,0.3c-4.2,4-8.1,8.3-11.8,12.8c-2.1,2.3-4.2,4.5-6.3,6.8c-5.2,4.4-10.3,8.8-15.4,13.2c-2.5,2.2-5,4.3-7.5,6.5
		c-2.4,2.1-4.9,3.6-5.3,6.9c0,0.3,0,0.6,0.1,1c-3.4,2.3-6.8,4.6-10.3,6.8c-0.4,0-0.8,0-1.3,0.2c-6.6,2.3-12.6,5.8-17.8,10.5
		c-0.2,0.1-0.3,0.3-0.4,0.4c-1.4,0.7-2.8,1.4-4.3,2.1c-0.9-0.6-2.1-0.8-3.3-0.1c-3.4,2.1-6.9,3.7-10.8,4.8c-3.8,1-7.5,1.8-10.9,3.8
		c-0.1,0-0.1,0.1-0.2,0.1c-2.3-1.9-6.1,0-7.6,2.4c-1.5,2.3-0.8,5.6,1.6,6.8c-2.8,1.8-1.2,7,2.5,5.8c41.4-14.1,81.5-34.8,111.6-67.2
		c3.1-3.3,6.1-6.7,8.9-10.3c39.7,41.5,97.2,60.8,152.6,71.8c9.4,1.9,18.8,3.5,28.2,5.1c9.4,1.6,19,3.7,28.4,1.4
		c2.7-0.7,2.8-3.8,1.3-5.3c0.1-0.2,0.2-0.4,0.3-0.7C563,379.8,564.3,372.9,565,365.8z M442.2,363.4
		C442.3,363.4,442.3,363.4,442.2,363.4c1.1,0.1,1.9-0.3,2.4-0.8c0.9,0.3,1.9,0.6,2.8,0.9c-0.1,0.6-0.1,1.2,0.2,1.7
		C445.8,364.7,444,364,442.2,363.4z"/>
	<path d="M474.2,401.9c-4.6-8.8-15.2-3.1-20,2.4c-5.7,6.6-7.9,16.1-7,24.7c0.7,7.3,4.6,14.8,12.7,15.4c8.9,0.7,14.5-7,14.5-15.1
		c0.6-4.2,1-8.5,1.1-12.7C475.8,412.1,476.4,406.2,474.2,401.9z"/>
	<path d="M332,408.3c-2.1-7.8-9.2-14.5-17.4-9.5c-8.4,5.1-8.8,17.6-8.3,26.2c0.2,4.4,0.2,9.5,2.6,13.4c2,3.3,6,6.2,9.6,7.6
		c3.6,1.4,6.3-0.4,7.9-3.2c0.8-0.3,1.4-0.8,1.7-1.6c1.4,0.2,2.9-0.5,3.4-2.2C334.2,429.1,334.7,418.2,332,408.3z M317.5,405
		c-0.2-0.1-0.3-0.2-0.5-0.2c0.2-0.2,0.5-0.4,0.7-0.6C317.6,404.5,317.6,404.8,317.5,405z"/>
	<path class="st6" d="M749,630.4c-0.3-1.7-1.6-2.4-2.9-2.3c-6.8-20.3-20-38-37.6-50.4c-3.1-2.2-6,2.2-3.9,4.8c0,0,0,0.1,0,0.1
		c-1,0.1-1.9,0.6-2.5,1.4c-0.9,0.1-1.7,0.6-2.3,1.3c-1.4-1.3-3.3-0.8-4.4,0.5c-0.7,0.2-1.3,0.6-1.8,1.4c-0.1,0.2-0.2,0.5-0.4,0.7
		c-1.3-0.3-2.7,0.1-3.4,1.4c-0.1,0.1-0.1,0.3-0.2,0.4c-1.4-0.8-3.3-0.3-4.3,1.1c-0.9-0.3-2-0.3-2.8,0.2c-0.3-0.5-0.5-1-0.8-1.5
		c-1-1.6-2.9-1.9-4.4-1.1c-1-1.5-2-3.1-3.1-4.6c0.1-0.5,0.2-1.1,0-1.7c-1.7-5.4-3.5-10.8-5.2-16.3c-0.2-0.7-0.6-1.2-1-1.5
		c0.2-0.7,0.1-1.5-0.5-2.3c-2.6-3.3-5.9-4.4-10-4.8c-5.4-0.5-10.9-0.5-16.3-0.7c-5.1-0.2-10.5-1-15.6-0.1c-4.4,0.8-7.5,3.4-9.8,7.2
		c-2.3,3.8-4.5,6.9-8.7,8.7c-3.8,1.7-8.1,1.9-12,0.6c-2.4-0.9-4.6-2.4-6.7-3.9c-2-1.5-4-3.6-6.5-4.1c-3.5-0.7-7.7,1.5-11,3.6
		c-0.9-0.9-2.3-1.3-3.7-0.5c-4.3,2.7-8.2,5.8-11.7,9.4c-3.5,2.5-6.9,5.1-9.8,8.4c-1.1,1.3-1.2,3.6,0.1,4.7c-1.2,1.2-2.4,2.4-3.5,3.5
		c-0.9-0.2-1.8,0.1-2.6,1c-2.9,3.5,0.4,8,2.1,11.4c2.3,4.4,4.9,8.6,7.8,12.6c2.6,3.6,5.4,7.6,9.3,9.8c3.3,1.9,6.7,1.8,10.1,1
		c0.4,0.2,0.7,0.3,1.1,0.3c2.1,0.2,3.8-0.2,5.7-1.1c0.4-0.2,0.7-0.5,1-0.8c1.4,0.8,3.1,1.4,4.8,1.4c0.1,0.6,0.4,1.1,1,1.6
		c4.5,4,9.6,7.6,15.9,7.5c6.3-0.2,11.7-3.7,17.6-5.6c5.5-1.8,12-3,17.5-0.7c5.2,2.2,8.2,7.4,13,10.1c5.4,3,10.8,1.3,15.8-1.6
		c5.6-3.1,11.2-5.1,17.6-3.7c3.6,0.8,6.8,3.1,10.1,4.5c0.5,0.5,1.3,0.7,2,0.7c1.3,0.3,2.7,0.5,4.1,0.3c3-0.4,5.5-2,8.2-3.2
		c0.3-0.1,0.6-0.2,0.9-0.3c1,3.1,5.3,2,6-0.8c0.7,0.1,1.4,0.2,2.1,0.3c0.7,1.5,2.2,1.9,3.5,1.5c2,1.2,3.8,2.6,6.1,2.8
		c3.7,0.3,7.7-1.7,11.2-2.8c3.5-1.1,7.3-2,10.7-3.4C747.8,635.6,749.5,633.6,749,630.4z M601.8,580.4c-0.1-0.1-0.2-0.2-0.3-0.3
		c0.4,0,0.8-0.1,1.1-0.1C602.3,580.1,602,580.2,601.8,580.4z M670,595c0.1,0.6,0.2,1.1,0.3,1.7c-0.9-3-1.8-6.1-2.6-9.2
		c0-0.6,0-1.1,0-1.7c0.4,0.7,0.9,1.4,1.3,2.1c0.6,1.4,1.3,2.8,2.2,4C670.3,592.6,669.8,593.7,670,595z"/>
	<path class="st7" d="M596.9,591.3c-1.7,2.7-2.7,5.7-2.8,8.8c-0.2,0.7-0.4,1.5-0.5,2.3c-0.1,0.8,0,1.6,0.3,2.3
		c0.4,2.8,4.3,4.5,5.8,1.4c1.5-3,2.4-6.1,2.6-9.4c0-0.1,0-0.1,0-0.2c0.2-1.2,0.4-2.4,0.6-3.6C603.2,589.6,598.4,588.9,596.9,591.3z"
		/>
	<path class="st7" d="M635.8,574.3c-0.7-1.1-2.3-2-3.6-1.5c-0.8,0.3-1.6,0.6-2.3,0.9c-2.6,0.6-5.1,1.2-7.7,1.7
		c-1.4,0.3-2.1,1.2-2.2,2.3c-1.8,1.3-2.1,4.2,0.2,5.6c1,0.6,2.3,0.6,3.7,0.3c0.5,0.1,1.1,0.1,1.7-0.1c1.4-0.5,2.8-1.1,4.1-1.8
		c0.5,0,1.1-0.1,1.6-0.4c1.1-0.5,2-1.2,2.9-2c0.5-0.3,0.9-0.7,1.2-1.2c0,0,0.1-0.1,0.1-0.1C636.2,577,636.6,575.6,635.8,574.3z"/>
	<path class="st7" d="M671.5,599.6c-0.1-0.1-0.1-0.2-0.2-0.3c0-0.5-0.1-1.1-0.4-1.7c-1.6-2.9-2.9-6-3.9-9.2
		c-0.6-1.9-2.1-2.5-3.5-2.2c-2.4-2.4-7,1.1-4.9,4c1.3,1.7,2.5,3.5,3.6,5.3c0.9,2.6,2.2,5,3.7,7.3C668.4,606.2,673.9,603,671.5,599.6
		z"/>
	<path class="st7" d="M711,611c-0.4-0.9-0.9-1.8-1.3-2.7c-0.6-1.8-1.3-3.6-2.1-5.4c0-0.1-0.1-0.1-0.1-0.2c0.2-0.9,0-1.9-1-2.8
		c-1-0.9-1.8-1.1-3.1-1.3c-1.9-0.2-3.8,2.2-3.1,4c0.2,0.4,0.3,0.8,0.5,1.2c-0.1,0.4,0,0.9,0.1,1.4c0.6,2.2,1.4,4.4,2.5,6.3
		c0.4,1.1,0.9,2.2,1.3,3.3c1.4,3.6,6.2,2.5,6.2-1C711.4,613.2,711.5,612.1,711,611z"/>
	<path class="st8" d="M613.7,555.6c0.1-1.3-0.1-2.6-0.4-3.6c-0.4-1.2-1.1-2.4-2-3.3c0-1.3-0.6-2.5-1.8-3.5c-0.8-0.7-1.7-0.8-2.7-1
		c-0.8-0.3-0.8-0.2-1.6-0.6c-0.7-0.3-1.5-0.7-2.3-0.7c-0.3,0-2.1,0.2-2.1,0.4c-0.4,0.1-0.8,0.1-1.2,0.2c-0.5,0.1-0.9,0.3-1.2,0.6
		c-0.2,0-0.3,0.1-0.5,0.2c-1.9-0.1-3.8,0.5-5.3,1.8c-1.7,0.8-3.3,2.3-4,4.2c-0.5,1.4-0.8,3.2-0.7,5c-0.5,2.4,0,5.3,1.3,7.6
		c0.5,1.6,1.5,3,2.9,4.1c0.9,2.1,3,3.5,5.2,4c0.9,0.3,1.9,0.5,2.9,0.4c0.6,0.2,1.3,0.3,2,0.2c0.8-0.1,1.4-0.5,2-0.9
		c0.2-0.1,0.4-0.2,0.6-0.2c0,0,0,0,0,0c2.1,0.7,3.5-0.4,4.5-1.9c1.2-0.8,2.3-2.1,3-3.2C614.1,562.2,614.2,558.9,613.7,555.6z"/>
	<path class="st8" d="M703.8,561.6c-0.3-1.5-1-2.7-2.1-3.5c-4.3-6.9-13.6-7-20.4-3.7c-3.7,1.8-6.6,4.8-7.6,8.9
		c-1,4-1.3,8.9,0.7,12.6c1.7,3.3,5.4,6.4,8.6,8.1c3.9,2,8.3,0.7,11.6-1.9C700.8,577.6,705.1,569.3,703.8,561.6z"/>
	<path class="st9" d="M585.1,567.6c-0.1,0.1-0.2,0.1-0.4,0.2c-0.3-0.4-0.7-0.7-1.2-0.9c0.2-2.1-1.6-4.4-3.9-3.4
		c-0.4,0.2-0.7,0.3-1.1,0.5c-2.8,0.7-5.3,2.1-7.4,3.9c-2.3,1.3-4.4,3.1-6.4,4.9c-5.2,1.7-9.6,5.3-13.5,9.5
		c-5.5,3.4-9.5,8.5-11.4,14.9c-0.1,0.5-0.1,0.9-0.1,1.3c-0.3,0.8-0.5,1.6-0.7,2.5c-0.5,2.4,1.2,4,3.2,3.9c0,0,0,0,0,0
		c-2.4,3.3,3.1,6.5,5.5,3.2c1.9-2.5,3.8-5,5.9-7.3c0.4-0.1,0.8-0.3,1.1-0.6c6.6-5.9,13.1-11.8,19.7-17.7c0.4-0.4,0.7-0.8,0.8-1.2
		c4.2-3,8.6-5.7,13.1-8.1C591.9,571.2,588.7,565.7,585.1,567.6z"/>
	<path class="st9" d="M666.3,560.4c-5-1.8-10.5-2.9-15.7-3.7c-10.3-1.7-20.9-1.8-30.9,1.7c-1.7,0.6-2.4,2.2-2.1,3.7
		c-1.7,1.9,0,5.9,3.3,5.3c14.8-2.8,30.1-2,44.6,2.1c1.9,0.5,3.3-0.6,3.7-2C671.5,565.2,669.2,561.4,666.3,560.4z"/>
	<path class="st10" d="M582.5,551c-0.7-0.7-1.6-1-2.5-0.9c-0.1,0-0.1,0-0.2,0c-0.8,0-1.7,0.3-2.3,0.9l-1.1,1.3
		c-0.2,0.2-0.3,0.4-0.5,0.7c-0.1,0.2-0.3,0.3-0.4,0.5c-1.1,1.1-1.2,2.9-0.2,4.2c0.4,0.5,1,1,1.7,1.1c0.9,0.2,1.6,0,2.5-0.3
		c1.3-0.6,2.3-1.6,3.1-2.7c0.2-0.2,0.3-0.6,0.4-0.9C583.6,553.7,583.5,552,582.5,551z"/>
	<path class="st10" d="M659.4,524.4c-0.8-1.6-2.1-3-3.4-4.3c-1.4-2.6-3.5-4.8-5.9-6.7c-2.7-2.1-5.7-3.9-8.8-5.6
		c-2.6-1.8-5.4-3.3-8.3-4.5c-0.4-0.2-0.9-0.3-1.4-0.5c-2.2-1-4.4-1.6-6.5-0.7c-1.2,0.2-2.4,0.5-3.6,1.1c-3.7,2-6.3,5.9-9,9
		c-5.9,6.9-11.9,13.7-17.8,20.6c-1.4,0.2-2.7,1.2-2.6,3c0,0,0,0.1,0,0.1c-1.2,2.6,1.4,6.2,4.3,4.2c1-0.7,2.1-1.2,3.2-1.7
		c0.6,0.4,1.4,0.5,2.3,0.4c0.5-0.1,0.9-0.1,1.4-0.1c2.4,2.5,5.8,4.2,9.2,4.3c0.5,0.5,1,1,1.5,1.5c0.2,0.5,0.5,0.9,0.8,1.4
		c0.6,0.8,1.4,1.7,2.3,2.5c0.8,1,1.6,2,2.7,2.6c2.2,1.2,4.8,0.5,7.2,0.3c6.3-0.5,12.4,0,18.6,0c1.2,0,2.4-0.6,3.3-1.5
		c0.6-0.1,1.2-0.4,1.8-0.8c3-2.7,4.6-6.2,4.9-10.2c0.5-1,0.9-2,1.3-3.1c0.4-0.6,0.8-1.2,1.1-1.8c1.4-1.3,2.2-3,2.3-4.9
		c0.1-0.2,0.1-0.4,0.1-0.6c0.1-0.3,0.2-0.5,0.3-0.8C661.4,526.5,660.6,525.1,659.4,524.4z"/>
	<path class="st11" d="M235.7,659.6c1-1.8,24.4-54.3,24.4-54.3s32.3-41.3,33.7-43.4c1.4-2.1,30.9-24.6,32.7-26.1
		c1.8-1.5,30.9,1.1,32.1,1.1s50,2.2,51.3,1.5s40.1-2.4,41.2-3.1c1.1-0.7,12.2-3,15.6-1s45.1,37,45.5,37.2
		c0.3,0.2,41.2,55.6,41.4,55.9s15.1,33.4,14.6,34.6c-0.5,1.3-182.7-4.3-182.7-4.3l-126.7,4.8l-23,2V659.6z"/>
	<path class="st12" d="M384.2,558.8c-1.8-2-10.3-6.2-11.5-6.9s-10.7-8.1-10.5-9.5c0.3-1.4-2-5,1.1-5.2c3.1-0.2,43.1,1.3,44.8,1.3
		s21,0,21,0s-5,9.2-5.9,10.3c-0.8,1.1-12.5,8.2-13.5,8.2c-0.9,0-13.7,3.5-13.7,3.5L384.2,558.8z"/>
	<path class="st3" d="M316.1,657.8c0.4-2,9.5-59.4,10.9-60.2s10.8-7.1,10.6-7.3c-0.2-0.2-2.6-18.8-2.6-18.8s1.8-22.4,0.8-22.7
		c-1-0.3-5-14.8-2.3-14.5c2.7,0.3,13.3,0.4,13.2,1.5c-0.1,1.1,4.3,25.9,4.3,25.9l6.2,23.5c0,0,54.5,0.2,56.2-0.5
		c1.7-0.7,20.4,0,20.4,0s3.6-17.1,3.2-17.9c-0.4-0.8,0.2-15.5,0.2-17.2c0-1.7,2.1-12.6,2.1-12.6s17.4-2.1,17.8-1.3
		c0.4,0.8,0,27.1,0,27.1s-2.5,26.7-1.6,26.5c0.9-0.2,10.8,5.2,10.8,5.2l6.7,32.4l4.3,31.7l-37.6-1l-61.6,1l-46.2,2.4L316.1,657.8z"
		/>
	<path class="st13" d="M175.6,667.4c-0.6-2-1.5-12.2-2.9-13.6c-1.3-1.4-2.8-5.4-4.7-9.1s-5.3-9.9-5.3-9.9l-4.4-7.7l-4.7-6.6
		c0,0-7.4-7.8-10.2-10.3s-5.3-6.8-5.3-6.8l9.3-20.2c0,0,21.1-23.6,22.2-24.4c1.1-0.8,26.1-12.2,27.5-12.7c1.4-0.4,39.7-7.2,40.5-6.3
		c0.8,1,31.7,10.5,32.2,10.8s17.9,13.9,17.9,13.9l-13.5,20.2c0,0-24.2,37-24.6,38c-0.4,0.9-11.3,25.4-11.4,26
		c-0.2,0.6-2.8,14.3-2.8,14.3l-27.3,4.2l-16.2,0.7L175.6,667.4z"/>
	<path class="st14" d="M196.8,666.8c-1.4-1.7-5.2-17.3-5.7-18s-3.1-14-3.1-14s-0.6-6.8-1.1-9.1s-0.6-5.9,1.1-7.4
		c1.7-1.4,4.8-3.6,7.4-2.7c2.5,1,5.7,2.9,5.9,4.8c0.3,1.9,4.5,5.5,5.1,10.1c0.6,4.5,2,9.3,3.1,13.3c1.1,4,3.4,14.1,4,15.6
		s3.1,6.8,1.4,6.4c-1.7-0.4-7,1.5-7,1.5L196.8,666.8z"/>
	<path class="st14" d="M231.9,663.4c-1.4-2-3.8-11.6-5.4-14.6c-1.7-3-3-11.4-3-11.4s-2.9-9.3-3.6-12.7c-0.7-3.4-0.8-6.9,0.2-9.1
		c1-2.2,1.9-8.2,4.7-8c2.8,0.2,4.5-1.8,5.9,1.3c1.4,3.1,3.4,4.5,5,8.8c1.5,4.2,3.5,9.6,4.1,12.7c0.6,3.1,2.5,10.7,1.7,11.6
		c-0.8,0.9-1.1,7.4-2,8.8c-0.8,1.4-7.4,13.9-7.4,13.9"/>
	<path class="st15" d="M59.4,695.3c-0.8,0.6-10.5-9.8-10.5-9.8L43.1,673c0,0-2.4-7.4-2.7-11.3s0.8-9.9,0.3-12.9s2.3-10.3,4-13.7
		c1.7-3.4,8.8-12,8.8-12l12.1-4.7l17.9,0.2l7.2,3.1c0,0,11.3-13.9,12.9-14.8s21.4-3.7,22.3-3.1c0.8,0.6,16.4,8.1,18.1,8.2
		c1.7,0.1,15.8,17.5,15.8,17.5l8.5,22.7c0,0,6.2,18.3,5.2,17.9s-35.7,4.8-35.5,5c0.2,0.2-35.7,9.3-36.5,9.3S68,694.2,68,694.2
		L59.4,695.3z"/>
	<path class="st16" d="M146.9,612.1c-2.6-1.6-5.5-2.7-8.4-3.5c-0.1-1.1-0.6-2.1-1.7-2.7c-0.5-1-1.3-1.8-2.7-2
		c-1.8-0.2-3.6-0.3-5.5-0.3c-6.6-1.1-13.5-0.4-19.7,2.2c-7.4,3.1-13.3,8.4-18,14.8c-0.5-0.3-1.1-0.5-1.9-0.4
		c-6.3,0.6-12.4-1.4-18.7-1.3c-5.3,0.1-10.5,1.8-14.9,4.8c-8.2,5.6-16.4,15.8-15.9,26.2c0.1,2,1.7,3,3.2,3.1
		c-0.7,6.5-0.1,13.2,1.2,19.6c0.3,1.3,1.1,2,2,2.2c0.5,4.8,1.5,9.5,3,14c1.3,3.8,7.5,2.2,6.1-1.7c-4.8-13.8-4.2-29.9,3.7-42.5
		c7.2-11.6,20.9-18,33.9-12.2c1.1,1.2,3,1.7,4.4,0.1c11.4-12.5,29.7-25,46.6-14.8C147.2,619.7,150.4,614.2,146.9,612.1z M65,629.2
		c0-0.1,0-0.1,0-0.2c0.3-0.2,0.7-0.3,1-0.4C65.7,628.7,65.3,628.9,65,629.2z"/>
	<path class="st16" d="M285.5,564.1c-6.3-6.9-13.8-11.9-22.1-15.2c-14.5-6.5-30.9-7.5-46.9-5.2c-19.8,2.9-40.2,9.5-55,23.5
		c-0.9,0.8-1.1,1.8-0.9,2.7c-0.6,0.5-1.1,1-1.7,1.6c-8.7,8.5-15.3,18.8-19.1,30.4c-0.6,1.8,0.7,3.3,2.2,3.9c-1.1,3.5,4,6.4,5.6,2.8
		c7.6-17,20.9-31,37.3-39.8c18.1-9.8,38.4-11.2,58.5-9.2c13,1.3,25.5,5.3,35.6,13.8c2.9,2.5,7.2-1.4,4.9-4.1
		C285.9,568.8,287.3,566.1,285.5,564.1z"/>
	<path class="st2" d="M148.4,579.5c-1.1-3.5-19.2-35.5-20-36.6c-0.9-1.1-7.8-13.2-7.8-13.2s-10,4.4-11.1,3.1
		c-1.2-1.2-15.8-7.2-15.8-7.2l-12-6.6l-9.7-13.6l-8.5-16.8L54,470.8c0,0-8.2-14.4-11.9-22.1c-3.7-7.6-5.4-11-8.5-18.7
		c-3.1-7.7-6.5-15.6-7-19.5c-0.6-4,4.8-11.4,4.8-11.4s10.4-7.4,9-9.2s-9-16.4-8-17.9c1-1.5,6.5-10.7,8-15.4
		c1.5-4.7,18.5-1.6,19.5-1.3c1,0.3,8,8.4,8,8.4s1.7,12.3,2,11.2s21.8-6.8,21.8-6.8l18.2,14.8c0,0,37.3,61.7,37.6,62.2
		s16.3,40.3,17.3,41.4c1,1.1-2.4,17.3-2.4,17.3l-7.4,9.9l18.5,27.3l6.5,12.8c0,0-17.9,10.3-17.9,11.1
		C162,565.8,148.4,579.5,148.4,579.5z"/>
	<path class="st17" d="M166.3,558.5c-5.4-11.3-11.7-22.1-18.8-32.4c-0.4-0.6-1.1-1.1-1.8-1.4c-0.1-0.3-0.2-0.5-0.3-0.8
		c-1.5-3.7-7.2-2.4-6.1,1.7c0.1,0.3,0.2,0.6,0.3,0.9c-0.2,0-0.4,0.1-0.6,0.2c-0.4-0.5-0.7-0.9-1.1-1.4c-1.5-1.8-4.4-0.8-5.3,1.1
		c-1.7-0.3-3.4,0.9-3.8,2.6c-1.2,0.7-2,2-1.4,3.5c0.1,0.2,0.2,0.5,0.3,0.7c-2.6,1.9-1.1,6.6,2.3,5.8c0.2,0.4,0.4,0.8,0.6,1.2
		c0,0.5,0.1,0.9,0.4,1.4c2.2,4.2,4.4,8.4,6.6,12.5c2.2,4.7,4.4,9.4,6.6,14.1c0.1,0.8,0.2,1.6,0.5,2.5c0.2,0.7,0.6,1.2,1.1,1.6
		c0.6,2.4,4.2,3.4,5.8,0.8c2.7-4.2,6-7.7,10-10.6C163.5,564.8,167.9,561.8,166.3,558.5z"/>
	<path class="st17" d="M68.2,362.9c-1.9-3-4.6-1.8-7.2-0.5c-3.1,1.5-6.1,3.4-8.9,5.5c-5.7,4.2-10.5,9.3-14.4,15.2
		c-2.3,3.4,3.2,6.6,5.5,3.2c0.6-0.9,1.2-1.7,1.8-2.5c0.8,0.1,1.6-0.1,2.4-0.7c2.6-2,5.3-3.9,8.1-5.5c0.6,0.4,1.5,0.6,2.4,0.4
		c2.9-0.7,5.7-1.8,8.3-3.2c1.7-0.9,1.9-2.7,1.2-4c0.4-1.1,0.1-2.4-0.5-3.3c0.4-0.2,0.7-0.6,1-1.1c0.1-0.1,0.1-0.2,0.2-0.3
		C68.8,365.2,68.8,363.9,68.2,362.9z"/>
	<path class="st18" d="M114,529c-17.5-4.6-22.7-24.6-28.7-39.5c2-2,4.9-3.1,6.7-5.2c2.3-2.7,3.1-6.3,1.9-9.6
		c-2.7-7.8-11.1-7-17.3-4.2c-0.4-0.6-0.7-1.1-1.1-1.7c4.9-4.3,9.1-10.2,4.6-16.6c-2-2.8-5.2-4-8.5-3.1c-1.5,0.4-2.9,1.3-4.3,2.1
		c-1.5,0.9-2.7,2-4,0.4c-2.8-3.4-5-7.8-7-11.7c-2.3-4.3-4.2-8.8-5.3-13.6c-1.9-9.2,0.7-18.4,5.6-26.2c5.7-8.9,14.4-15.4,23.3-20.8
		c3.5-2.1,0.3-7.6-3.2-5.5c-2.8,1.7-5.6,3.6-8.3,5.6c-0.9-1.1-2.4-1.7-3.9-0.7c-0.1,0.1-0.3,0.2-0.4,0.3c-0.4,0.1-0.8,0.3-1.2,0.6
		c-0.7,0.5-1.3,1-2,1.5c-3.5,2.3-7,4.6-10.5,6.8c-2.4,1.6-4.9,3.1-7.2,4.9c-1.4-0.6-3.1-0.2-4.1,1.2c-0.1,0.1-0.1,0.2-0.2,0.3
		c-1.9-0.4-3.8,0.3-5.1,2.3c-0.6,1-0.9,2.3-1.1,3.7c-1.1,0.4-1.9,1.3-1.8,2.8c0,0.5,0.1,0.9,0.1,1.4c-0.7,0.7-1,1.7-0.8,3
		c0.5,2.8,1.2,5.5,2,8.1c0,0.1,0,0.2,0.1,0.2c1.1,3.5,2.4,6.8,3.9,10.1c-0.2,0.4-0.3,0.9-0.3,1.5c0.3,6.4,3.3,12,6.4,17.5
		c0.5,0.9,1,1.7,1.5,2.6c2.6,5.2,5.6,10.2,8.8,15c1.4,2.8,2.9,5.6,4.5,8.2c4.4,11.1,10.6,21.3,16.9,31.4c0.2,0.4,0.5,0.7,0.8,0.9
		c0.1,0.2,0.3,0.5,0.4,0.7c-0.1,0.4-0.1,0.7,0,1.1c-0.1,0.6,0.1,1.3,0.6,2c0.6,0.9,1.3,1.8,2,2.7c1,1.4,2,2.8,3,4.2
		c0,0.7,0.3,1.4,1,2.1l1.6,1.4c0.9,1.3,1.8,2.5,2.8,3.8c0.6,0.8,1.4,1.3,2.2,1.4c0.6,0.4,1.2,0.8,1.7,1.2c0.7,0.5,1.4,1.1,2.1,1.6
		c0.2,0.2,0.5,0.3,0.8,0.5c1.4,1,2.9,2.1,4.3,3.1c1.1,0.8,2.2,0.7,3,0.2c3.4,2.8,7.4,5,12,6.2C116.3,536.2,118,530,114,529z"/>
	<path class="st17" d="M160.3,480c-3.4-11.2-8.8-22.1-13.8-32.6c-10.3-21.5-22.5-42-36.3-61.3c-1.1-1.5-2.9-1.7-4.2-1.1
		c-1.8-2.8-3.6-5.5-5.6-8.2c2.6-2.4-0.5-7.1-3.8-5.1c-8.9,5.5-11.6,16.8-9.4,26.5c1.4,6.3,4.5,12,7.8,17.5
		c3.4,5.7,6.9,11.4,10.1,17.3c6.9,12.4,13.5,24.9,19.9,37.5c3.2,6.2,6.9,12.6,8.8,19.4c0.7,2.6,1.6,6.1-0.2,8.4
		c-1.8,2.3-5.1,3.8-7.6,5.2c-2.3,1.3-4.6,2.6-7,3.7c-7.5,3-15.5,4.8-23.6,5.4c-4.1-0.1-8.1-0.9-12.2-2.4c-3.4-1.3-5.1,3.3-2.8,5.4
		c0,1.6,1,3.3,3.1,3.4c0.5,0,0.9,0.1,1.4,0.1c-0.2,0.9,0.1,1.8,1,2.6c2.2,1.7,4.6,2.7,7.2,3.2c-0.1,1.1,0.4,2.2,1.5,2.9
		c3.8,2.4,8.1,2.3,12.4,1.5c4.9-0.9,9.7-2.3,14.5-3.6c10.2-2.9,20.1-6.6,29.7-10.9c0.8-0.4,1.3-0.9,1.5-1.5c1.9-0.1,3.6-1.5,2.9-3.9
		c-0.1-0.5-0.3-1-0.4-1.5c0.1-0.1,0.3-0.2,0.4-0.4c0.5-0.3,1-0.6,1.5-1.1c0.5-0.5,0.7-1,0.9-1.6C163.1,497.8,162.8,488.2,160.3,480z
		"/>
	<path class="st19" d="M92,668.9c-0.1-1.8-0.4-3.5-1.1-5.2c-0.1-0.2-0.2-0.4-0.3-0.6c0-0.2-0.1-0.4-0.1-0.6
		c-0.3-1.7-2.4-2.6-3.9-2.2c-1.8,0.5-2.5,2.2-2.2,3.9c0.1,0.4,0.1,0.7,0.2,1.1c-0.1,2.1,0,4.2,0.7,6.3c1.2,3.7,6.9,2.3,6.3-1.2
		C91.9,670,92,669.5,92,668.9z"/>
	<path class="st19" d="M119.5,660.5c0-0.1,0-0.2,0-0.4c-0.1-2.1-0.7-3.8-1.9-5.4c0-0.1,0-0.2-0.1-0.4c-0.2-1.7-2.4-2.6-3.9-2.2
		c-1.8,0.5-2.5,2.2-2.2,3.9c0.1,0.9,0.4,1.9,0.7,2.7c0.3,1.5,0.8,2.9,1.6,4.2C115.6,666.4,120.6,663.8,119.5,660.5z"/>
	<path class="st19" d="M183.8,574.3c-2.4,1.5-4.7,3-7,4.5c-3.4,2.2-0.2,7.7,3.2,5.5c0.4-0.3,0.8-0.5,1.3-0.8c0.6,0.4,1.3,0.6,2,0.6
		c2.4,0,4.4-2,4.3-4.3c0-0.1,0-0.2,0-0.3c0.2-0.2,0.4-0.5,0.6-0.7C190.1,576,186.4,572.7,183.8,574.3z"/>
	<path class="st19" d="M214.4,569.2c-2.4,0-4.8-0.1-7.2-0.1c-0.4,0-0.8,0.1-1.1,0.2c-0.6,0-1.3,0-1.9,0c-4.1,0-4.1,6.3,0,6.4
		c2.1,0,4.3,0,6.4,0.1c0.4,0,0.7,0,1-0.1c0.9,0,1.8,0,2.7,0C218.5,575.6,218.5,569.2,214.4,569.2z"/>
	<path class="st19" d="M241.6,571.1c-0.9-0.4-1.8-0.7-2.7-1.1c-1.7-1.1-3.5-2-5.6-2.3c-1.7-0.3-3.4,0.4-3.9,2.2
		c-0.4,1.5,0.5,3.6,2.2,3.9c0.3,0,0.5,0.1,0.8,0.2c0.2,0.2,0.5,0.4,0.8,0.5c1,0.4,2,0.9,3,1.3c0.3,0.1,0.7,0.2,1,0.3
		c0.9,0.4,1.8,0.7,2.7,1.1c1.6,0.7,3.5-0.7,3.9-2.2C244.3,573.2,243.2,571.8,241.6,571.1z"/>
	<path class="st20" d="M576.4,638c2.2-2.4-0.1-5.7-2.6-5.5c-0.8-0.4-1.7-0.6-2.9-0.3c-1,0.3-2,0.9-2.9,1.6c-0.8,0.1-1.5,0.3-2.2,0.6
		c-3.1,1.4-5.3,4.9-4.5,8.4c0.8,3.4,3.6,4.4,6.4,3.9c1.6,2.2,5.6,1,5.7-1.9c1.3-1.9,2.3-4,2.7-6.3
		C576.1,638.3,576.3,638.2,576.4,638z"/>
	<path class="st21" d="M564.9,661.2c-0.3-1.5-2-9.4-2.9-10.8c-0.8-1.4-3.6-10.6-3.5-12.7s6.2-1.2,7.2-3.3c1-2.1,10.1-2.7,11.5-3
		s13,9.4,14.6,10.1c1.6,0.7,18.2-3,18.2-3l20-4.3c0,0,16.4,11.5,18.2,12c1.8,0.5,19.9,0.2,19.3-2.2c-0.7-2.4,15.2-7.5,16-5.5
		s9.9,9.4,9.9,9.4s13.4-6.7,14.3-6.8c0.9-0.1,11.7,4.3,13.1,4.6c1.4,0.3,17.8-3.7,17.8-3.7s11.9-3.3,11.7-2.4
		c-0.2,0.9,2.3,20.5,1.6,21.6s-2.3,12.7-3.6,16.6c-1.3,4-8.9,19.8-8.9,19.8s-7.3-1.2-9.6-2.7c-2.3-1.5-12.5-3.2-17.3-3.8
		c-4.8-0.6-9.9-2-9.9-2l-12.7-4.5c0,0-8.2-2.5-13.9-3.7c-5.7-1.1-13.3-2.5-13.3-2.5l-13.6-3.1l-13.2-1.3l-14.5-2.3l-17.6-1.8
		l-17.5-1.7l-17.4-3.2L564.9,661.2z"/>
	<path class="st22" d="M574.8,631.5c-1.8-0.7-4.5,0.2-4.9,2.8c-0.1,0.9-0.2,1.8-0.3,2.8c0,0,0,0,0,0c-0.9-2.1-3.7-2.6-5.2-1.3
		c-1.6,0-3.1,1.1-3.2,3.1c-0.1,3.2,0.8,6.2,2.6,8.9c0.2,0.9,0.4,1.9,0.6,2.8c0.2,1,0.9,1.7,1.6,2c0.2,2.4,0.5,4.8,0.7,7.2
		c0.2,1.8,1.6,2.8,3,3c0.7,1.2,2,1.8,3.3,1.7c1.8,1.3,5.1,0.5,5.2-2.5c0.1-9.2,0.4-18.5,0.9-27.7
		C579.3,631.6,576.7,630.7,574.8,631.5z"/>
	<path class="st22" d="M608.4,641.1c0,0.5-0.1,1-0.1,1.5c-1.4-0.7-3.2-0.6-4.2,1.1c-0.1,0.1-0.1,0.2-0.2,0.3c-1.6,0-3.3,0.2-4.9,0.7
		c-0.6,0.2-1.1,0.6-1.5,1c0-0.4,0-0.8,0-1.2c0.2-4.1-6.2-4.1-6.4,0c-0.2,6.7-0.5,13.4-0.7,20.1c-0.1,3.8,5.2,4.1,6.2,0.9
		c0.6,0.5,1.4,0.9,2.2,0.9c0.8,0,1.7-0.3,2.2-0.9c0.5-0.1,1-0.3,1.5-0.7c0.4,0.9,1,1.4,1.8,1.6c0.9,0.7,2.2,0.8,3.2,0.4
		c0.3,3.8,6.4,3.8,6.3-0.3c-0.1-8.5,0.2-17,1-25.4C615.2,637,608.8,637,608.4,641.1z"/>
	<path class="st22" d="M637.1,642.3c-0.1-0.5-0.4-1-0.8-1.3c-0.7-1.7-2.7-3.1-4.5-1.8c-0.1,0-0.1,0.1-0.2,0.2
		c-0.2,0.1-0.4,0.1-0.5,0.2c0-0.8,0.1-1.6,0.2-2.4c0.3-4.1-6.1-4.1-6.4,0c-0.7,10.8-1,21.7-0.9,32.5c0,3.4,4.3,4,5.8,1.8
		c1.1,1.3,3.3,1.4,4.6,0.3c-0.2,4,6,3.9,6.4-0.1c0.8-9.4,1.6-18.9,2.4-28.3C643.5,639.6,638.3,639.3,637.1,642.3z"/>
	<path class="st22" d="M670.4,641.4c-0.2,1.2-0.3,2.3-0.5,3.5c0,0-0.1-0.1-0.1-0.1c-0.3-0.1-0.5-0.2-0.8-0.3c-1-0.6-2.3-0.8-3.4-0.4
		c-1.8,0.2-3.6,0.9-5.1,1.9c-0.7,0.5-1.5,1.2-2.3,2c-0.9-3.1-6.2-2.8-6.2,1c-0.1,8.9-0.3,17.7-0.7,26.6c-0.2,4.1,6.2,4.1,6.4,0
		c0-0.3,0-0.6,0-0.9c0.7,0.3,1.4,0.3,2.1,0.2c0.6-0.1,1.1-0.3,1.5-0.6c0,0,0,0,0,0c0.4,2.9,3.8,3.4,5.6,1.4c0,0.7-0.1,1.4-0.1,2
		c-0.2,4.1,6.1,4.1,6.4,0c0.7-11.6,1.8-23.2,3.4-34.8C677.1,639,671,637.3,670.4,641.4z"/>
	<path class="st22" d="M698.5,649.6c0,0.4-0.1,0.7-0.1,1.1c-0.6-0.7-1.4-1.2-2.5-1.2c0,0,0,0-0.1,0c-0.9-0.3-1.9-0.3-2.8,0.1
		c-0.2,0-0.4,0-0.6,0c0-0.3,0-0.6,0-0.9c0.2-4.1-6.2-4.1-6.4,0c-0.5,10.9-1,21.9-1.5,32.8c-0.2,3.9,5.7,4.1,6.3,0.4
		c0.8,0.9,2.1,1.3,3.3,1.2c1.2,0.7,2.7,0.5,3.7-0.4c0.1,0.9,0.1,1.8,0.2,2.8c0.3,4.1,6.7,4.1,6.4,0c-0.9-12-0.8-24,0.4-35.9
		C705.3,645.5,698.9,645.5,698.5,649.6z"/>
	<path class="st22" d="M730.9,646.5c-0.1,0.6-0.1,1.3-0.2,1.9c-0.6-0.2-1.2-0.2-1.8-0.1c-1.2,0.2-2.5,0.4-3.6,0.9c0,0-0.1,0-0.1,0
		c-1.2-0.3-2.5-0.2-3.6,0.3c0-0.8,0.1-1.7,0.1-2.5c0.1-4.1-6.2-4.1-6.4,0c-0.5,13.9-1,27.7-1.5,41.6c-0.1,3.7,5.1,4.1,6.2,1
		c0.9,1.3,2.1,2.3,3.5,2.7c0.4,0.1,0.9,0.2,1.3,0.2c1,0.9,2.5,0.8,3.6,0c0.1,3.9,6.3,3.8,6.4-0.2c0.3-15.3,1.1-30.5,2.4-45.8
		C737.6,642.4,731.2,642.4,730.9,646.5z"/>
	<path class="st23" d="M744.7,623.3c-2.4,5.3-7.3,9-13.2,9.8c-6.8,0.9-11.1-3.6-17.1-5.6c-2.9-1-5.9-0.7-8.7,0.5
		c-2.7,1.2-5.2,4-8.2,4.3c-3.2,0.4-6.5-2.2-9.1-3.6c-3.3-1.7-6.8-2.9-10.6-3.1c-3.5-0.2-7,0.5-10.2,1.8c-3.3,1.4-6.6,3.8-10.2,4.2
		c-6.4,0.6-12-5.4-17.2-8.3c-6.2-3.5-13.7-4.5-20.5-2.5c-3.2,0.9-6.1,2.5-9,4c-3.1,1.6-7,3.6-10.6,2c-3.3-1.5-5.4-5.1-8.6-6.9
		c-3.2-1.9-7-2.4-10.6-2.3c-4.5,0.1-8.9,0.9-13.4,0.9c-4.9,0-9.7-0.7-14.4-1.8c-4-1-5.7,5.2-1.7,6.1c1.3,0.3,2.5,0.6,3.8,0.8
		c-0.4,0.7-0.5,1.5-0.2,2.2c1.6,3.9,6.2,4.4,10.4,4c0.3,0,0.5,0,0.8-0.1c1.5-0.2,2.9-0.4,4.1-0.7c0.8-0.2,1.3-0.5,1.7-0.9
		c3.2-0.5,6.4-0.3,9.6,0.4c-0.3,0.8-0.3,1.8,0.2,2.6c1.5,2.5,3.6,4.7,6.2,6c2.7,1.4,5.9,1.1,8.5,2.4c1.4,0.8,2.8,0.3,3.7-0.6
		c5.4-0.1,10.2-3,15.1-5c4.7-2,9.7-3.6,14.8-3.3c0.3,0.9,1,1.6,2.2,1.8c8.1,1.3,12.9,9.1,21.2,10.3c8,1.2,13.9-5,21.5-6.1
		c0.6-0.1,1.1-0.3,1.4-0.6c4.4,0.2,8.8,4,12.7,5.5c5.7,2.2,10.9,0.9,16.5-1.1c2.7-1,5.5-2.1,8.4-1.8c1.3,0.1,2.5,0.5,3.7,0.9
		c0.1,1.5,1.1,2.8,3.1,2.7c5.9-0.2,11.6-1.2,17.3-3c0.9-0.3,1.6-0.9,1.9-1.6c0.9-0.4,1.8-0.9,2.8-1.3c1.2-0.6,1.7-1.6,1.6-2.6
		c2.5-2.1,4.6-4.7,6-7.7C751.9,622.8,746.4,619.6,744.7,623.3z"/>
	<path class="st24" d="M346.7,770.9c-1.4,0.5-10.5-0.1-10.5-1.2c0-1.1,1.1-13,2-13S346.7,770.9,346.7,770.9z"/>
	<path d="M60.2,618.1c-15.9-40.7-22.6-84.6-19.7-128.2c0.8-12.4,2.5-24.7,4.9-36.9c0.8-4-5.3-5.7-6.1-1.7
		c-8.6,43.6-7.6,89,3.2,132.2c3.1,12.3,7,24.4,11.6,36.3C55.5,623.6,61.6,621.9,60.2,618.1z"/>
	<path d="M200.2,193.4c-45.8,31.5-84.9,72.5-114.2,119.9c-8.2,13.2-15.6,27-22.2,41.1c-1.7,3.7,3.8,6.9,5.5,3.2
		c23.1-49.5,56.4-94,97.4-130.1c11.6-10.2,23.8-19.7,36.6-28.5C206.8,196.6,203.6,191,200.2,193.4z"/>
	<path d="M729.3,335.9c-13.5-28.8-30.7-55.9-51.6-80.1c-21.4-24.8-46.4-46.3-74.4-63.4c-3.5-2.1-6.7,3.4-3.2,5.5
		c48.9,29.9,88.4,73.9,115.4,124.4c2.8,5.2,5.4,10.4,7.9,15.7C725.3,337,727.3,336.3,729.3,335.9z"/>
	<path d="M756.3,452.8c2.3,17.8,3.5,35.7,3.5,53.6c0.1,39.5-5.1,78.7-10.4,117.7c-0.5,4,5.6,5.7,6.1,1.7
		c4.8-35.7,9.7-71.4,10.5-107.4c0.5-23.3-0.8-46.6-3.9-69.7C760.4,450.2,758.4,451.6,756.3,452.8z"/>
</g>
<g id="Capa_5">
	<path class="st11" d="M169.1,785.9c0,1.4,3.3,16.7,3.6,17.8c0.3,1.1,3.2,21.2,3.2,21.2s2.5,14.4,2.3,16.4c-0.3,2-1.4,10.5-2,11.9
		c-0.6,1.4-8.2,6.2-8.2,6.2s-10.2,1.7-12.2,1.1c-2-0.6-12.4-4.8-12.2-6.5c0.3-1.7-6.8-32.8-6.8-32.8l-7.7-50.3
		c0,0-5.6-40.8-5.9-41.9c-0.3-1.1,4.5-20.1,4.5-20.1s17.3-6.5,18.1-6.2c0.8,0.3,16.4,7.6,16.4,7.6l19.8,24.6l6.5,4.5l11.3-22.6
		l14.3-24.3c0,0,14.8-5,14.9-4.9s9.8,6,11,5.8c1.1-0.3,9.6,15.6,9.6,15.6s2.8,37.1,3.1,37.9c0.3,0.8,7.4,39.3,7.4,39.3v34.2
		c0,0-0.1,16.4-0.3,17.3s-6.2,7.6-7.4,8.2c-1.1,0.6-10.5,2.5-10.5,2.5s-10.5-2-10.5-3.4c0-1.4-1.6-10.7-1.6-10.7l-1.8-19l-4.8-18.7
		c0,0-3.8-24-4.9-22.2c-1.1,1.8-9.6,18.2-10.4,19.1c-0.8,0.8-9.3,7.9-10.5,7.9s-9.1-2-9.1-2s-7.4-4.2-8.8-5.9
		c-1.4-1.7-11.6-12.4-11.3-11.6C168.8,782.8,169.1,785.9,169.1,785.9z"/>
	<path class="st11" d="M283.9,839.9c-0.8-2,3.2-31.1,3.2-31.1s17-59.8,16.8-62.3c-0.1-2.5,11.3-39.8,12.2-42.1s5.9-12.6,8.1-12.8
		c2.2-0.2,16-3,16-3l11.6,6.7l19.2,36.6c0,0,23.2,55.4,23.5,56.2c0.3,0.8,12.7,28.9,12.7,30c0,1.1,0.6,14.1-0.3,15.6
		c-0.8,1.4-7.2,7.2-7.2,7.2s-10.9,2.7-11.7,1.9c-0.8-0.8-8.8-4.2-8.8-4.2l-6.2-6.8c0,0-3.1-5.9-4.8-9.3c-1.7-3.4-5.9-12.7-6.2-13.6
		c-0.3-0.8-9.6-5.4-9.6-5.4l-21.8,1.1l-6.4,21.8c0,0-4.8,9.9-8.7,14.2c-3.8,4.2-13.2,8.7-13.2,8.7l-12.6,0.8L283.9,839.9z"/>
	<path class="st11" d="M438.4,829.1c0-1.1-1.7-22.3-2-24.9c-0.3-2.5-1.3-102.1-0.8-103c0.5-0.8,7-13.6,8.4-14.7
		c1.4-1.1,20.4-3.7,21.2-4.2c0.8-0.6,32.2,2.8,33.1,3.4c0.8,0.6,20.9,15.6,20.9,15.6s10.5,21.2,10.2,22.3
		c-0.3,1.1-1.6,22.9-1.6,22.9l-7.7,14.2c0,0-9.2,9.2-10.6,10.3s-7.6,5-7.6,5.8c0,0.8,2,7.6,4.5,9.6c2.5,2,16.7,15,17.8,15.8
		c1.1,0.8,13.6,15.8,13.6,15.8s-0.8,13.6-1.7,14.4c-0.8,0.8-12.4,7.4-12.4,7.4s-13.6-0.6-14.4-1.1c-0.8-0.6-11-8.5-11-8.5
		s-14.3-21.1-15.8-21.7c-1.5-0.6-10.8-12.5-10.8-12.5s1.3,20.4,1.3,22.1s-3.1,12.7-4.8,15c-1.7,2.3-6.8,6.2-10.2,7.1
		c-3.4,0.8-11.6-1.4-11.6-1.4L438.4,829.1z"/>
	<path class="st11" d="M605.5,793.5c-0.8-0.3-19-32.8-19.2-33.7c-0.3-0.8-14.7-30.3-15.6-31.4s-9.9-22.9-9.9-22.9s1.4-9.6,3.1-12.7
		c1.7-3.1,9.3-6.8,11-7.6c1.7-0.8,11-0.4,11.3,0.1c0.3,0.5,11.6,12.9,11.9,14c0.3,1.1,20.9,33.7,20.9,33.7s10.7,17.5,11.3,16.4
		c0.6-1.1,14.7-22.3,15.6-23.5c0.8-1.1,19.8-22.9,20.9-23.2c1.1-0.3,14.1-0.8,15.6-0.3s10.2,9.9,9.6,11.3
		c-0.6,1.4-1.6,17.9-2.4,18.2c-0.7,0.2-24.9,37.1-25.4,36.9s-20.3,26.1-20.6,27.2c-0.3,1.1-3.4,24.6-3.4,26c0,1.4-1.7,22.3-2.3,23.5
		c-0.6,1.1-6.5,8.2-8.2,9.3c-1.7,1.1-12.4,1.1-12.4,1.1l-11-6c0,0-2.7-6.7-3.5-9.5c-0.8-2.9,0.7-15.3,0.1-17
		c-0.6-1.7,0.3-13.9,0.3-13.9L605.5,793.5z"/>
	<path class="st11" d="M199.4,928.1c-0.6-1.7,0.9-14.9,0-17.6c-0.9-2.7,0-27.1,0-27.1s1.1-9.3,2.5-9.9c1.4-0.6,20-1.1,20.8-1.1
		c0.7,0,15.4,4.8,15.4,4.8s5.9,9.1,6.5,10.2c0.6,1.1,0.7,8.1,0.2,9.4c-0.5,1.3-5.8,6.9-5.8,6.9s6,5.3,6.1,6.8c0,1.5,1.3,6.3,0.8,8.6
		s-2.2,7.6-3.5,9.1c-1.3,1.4-4.7,4.5-7.5,5.1c-2.8,0.6-8.5,2-9.6,1.4s-8.2,1.1-10.7,1.4s-9.6-1.7-9.6-1.7L199.4,928.1z"/>
	<path class="st11" d="M267.8,933c-0.8-2-1.7-8.5-0.8-10.2c0.8-1.7,5.9-14.1,6.5-15.3c0.6-1.1,15.6-32.2,16.7-33.7
		c1.1-1.4,4-3,5.4-2.1c1.4,0.9,4.7,3.8,6,5.7c1.3,2,12.9,23.7,13.2,23.9c0.3,0.2,7.1,17.1,7.6,18.8c0.6,1.7,1.6,11.6,1.8,12.7
		c0.2,1.1-4.3,3.5-6,3.5c-1.7-0.1-7.1-3.5-7.1-3.5s-5.6-9.9-6.8-9.6s-14.1,0.1-14.6,0.2c-0.4,0.1-7.8,0.1-7.5,1.2
		c0.3,1.1-2.5,8.2-2.5,8.2l-7.4,2.8L267.8,933z"/>
	<path class="st11" d="M347.3,931.8c-0.6-2.8-2.1-10.9-1.6-15.4c0.5-4.4,0.8-12.3,0.2-14.9c-0.6-2.5,0.7-13.6,0.7-13.6s-1-11,0-12.7
		c1-1.7,3.5-4.8,6.1-3.4c2.5,1.4,5.4,0.8,5.9,4c0.6,3.1,1.7,15.3,1.8,15.3c0.1,0,14.6-11.1,14.6-11.1s9.9-8.4,11.6-8.3
		c1.7,0.1,6.2-0.3,6.5,2c0.3,2.3,1.4,8.8-1.1,11.4c-2.5,2.5-16.7,15.8-15,16.5c1.7,0.7,12.7,20.7,12.7,20.7s6.5,4.6,5.7,6.9
		c-0.8,2.3-2.8,5.9-4.2,5.9c-1.4,0-7.6-1.1-7.6-1.1l-5.9-7.4l-8-10.3c0,0-3.6-5-4.5-4.1c-0.8,0.8-3.1,9.1-3.1,9.9
		c0,0.8-0.3,9.3-0.3,9.3s-5.4,4.7-6.2,4.9C354.7,936.6,347.3,931.8,347.3,931.8z"/>
	<path class="st11" d="M425.4,931.3c-0.8-1.1-4.9-8.9-4.9-8.9v-14.9c0,0,0.2-9.6,0-13.6c-0.2-4-0.2-8.5,0.3-12.2
		c0.6-3.7-0.3-5.1,2.3-7.1c2.5-2,6.8-2.5,9.9-3.4c3.1-0.9,19.8,0.2,19.8,0.2l8.2,4.6l0.3,7.6l-7.6,1.7l-8.2,0.6
		c0,0-10.1-1.6-9.8,0.2c0.2,1.8-1.1,6.6,0,8.3c1.1,1.7,0.2,4,3.1,3.4c2.8-0.6,7.6,0.3,9.3,0.6c1.7,0.3,3.7,3.9,4,5.2
		c0.3,1.3-2.3,5.5-2.3,5.5l-8.5,3.4l-7.4,1.1c0,0-0.7,5.8,1.8,6.6c2.5,0.8,2.9,1.9,6.4,1.3c3.4-0.6,16.2,2,16.2,2s2.3,3.4,3.1,5.1
		c0.8,1.7,1.1,4.8-1.4,4.8c-2.5,0-6.5,0.8-8.5,1.1s-8.4,1.8-10.6,1.1c-2.2-0.8-9.5-1.6-9.5-1.6L425.4,931.3z"/>
	<path class="st11" d="M490.8,935.7c-1-1.6-4-3.9-3.9-7.6s0.3-8.1,0.1-11.7c-0.2-3.6-1.3-39.9,0.6-41.1c2-1.2,9.3-4.5,11.6-3.8
		s19.8,2.9,20.6,2.9c0.8,0,7.1,1.7,8.8,4.5c1.7,2.8,4.2,9.9,3.7,12.2c-0.6,2.2,0,7.6-1.1,9.6c-1.1,2-8.2,8.9-7.1,9.8
		c1.1,0.9,6,10.6,6.8,11.8c0.8,1.2,4.5,6.6,4,8.6c-0.6,2-2,5.2-4.2,4.7c-2.3-0.5-4.3-0.5-5.7-1.9c-1.4-1.4-3.1-3.4-5.4-5.7
		s-6.8-7.6-6.8-7.6s-4.8-4.8-6.5-5.9c-1.7-1.1-5.3,0-5.3,0l1,7.8l-1,9.3l-3.2,5.5L490.8,935.7z"/>
	<path class="st11" d="M580.4,934.9c-0.8-0.8-4.8-4-4.8-8.5s0-9.6-0.8-14.1c-0.8-4.5-1.4-5.8-3-8.9c-1.5-3-3.2-4.4-4.9-7
		c-1.7-2.5-4.2-5.1-5.9-8.2c-1.7-3.1-4.2-6.8-4-9.9c0.3-3.1,0.9-5,3.1-6.6c2.2-1.6,3.9-2.3,6.2-0.8c2.3,1.5,7.4,6.8,8.5,8.5
		c1.1,1.7,8.4,13.2,8.4,13.2l12.6-15.5c0,0,7.8-5.4,8.4-4.4c0.6,1,3.5,2.7,3.2,5.8c-0.3,3.1-2.3,10.2-2.3,10.2l-8.8,12.6
		c0,0-5.7,10.1-5.9,12.6c-0.3,2.5-0.3,10.2-0.3,10.2s0.3,9.1-0.8,10.7C588,936.6,580.4,934.9,580.4,934.9z"/>
	<polygon class="st24" points="346.7,770.9 334.2,768.8 339.1,754.8 348.9,771.1 	"/>
	<path class="st0" d="M472.3,744c0.3-2.8,0-19,0-19s-0.3-5.7,2-6.8c2.3-1.1,7.1-1.7,9.3-1.1c2.3,0.6,6.2,3.4,7.1,5.7
		c0.8,2.3,3.4,7.9,2.8,10.5s-10.3,11.4-11,11.9C481.9,745.7,472.3,744,472.3,744z"/>
	<path class="st24" d="M225.1,921.4c-1.4,0-9.6-0.8-9.6-0.8s-3.4-5.7-2.5-7.1c0.8-1.4,3.7-3.1,6.5-3.4s8.2,2,8.2,2l2.3,4.4
		L225.1,921.4z"/>
	<path class="st24" d="M222.7,895c-1,0.3-6.1-0.8-6.1-0.8s-4.8-4.5-2.4-6.2c2.4-1.7,7.9-1.8,7.9-1.8l6.1,2.4c0,0,1.9,3.6,1,4
		C228.2,893.1,222.7,895,222.7,895z"/>
	<path class="st24" d="M299.8,909.5c-1.7-0.6-8.8,2.8-8.2,0.3c0.6-2.5,2.1-10.8,2.1-10.8l4.9,6.5L299.8,909.5z"/>
	<path class="st24" d="M515,897.9c-1.7,0-10.5-0.6-10.5-0.6l-3.6-3.1l1.1-7.4l8.7-0.5l5.8,2.8l0.8,6.2L515,897.9z"/>
</g>
<g id="Capa_2">
	<circle class="st25" cx="311.7" cy="422.2" r="63.2"/>
	<circle class="st25" cx="473.1" cy="422.2" r="63.2"/>
	<path class="st25" d="M249.2,409.2c-4.6-6.5-14-9-21.2-5.7c-3.5,1.6-6.3,4.3-9,7c-4.1,4.1-8.1,8.4-10.2,13.8
		c-1.5,3.8-1.9,8-1.8,12.1c0.3,10.7,4.5,21.5,12.4,28.7c7.9,7.3,19.4,10.7,29.7,7.9c16.3,19.5,32.3,39.2,55.1,50.5
		c18.4,9.1,39.2,12.3,59.6,14.3c32.9,3.2,66.6,3.6,98.3-5.9s61.2-29.8,75.7-59.5c16.8,0.8,33.1-10.9,38.2-26.9
		c2.2-6.9,2.4-14.7-1-21.1c-1.9-3.7-4.9-6.7-8-9.4c-3.8-3.4-8-6.6-13-7.9c-6.3-1.6-13.4,0.5-17.8,5.2"/>
	<path class="st25" d="M375.1,419.7c7.8-6.4,19.2-8.3,28.7-4.6c2.2,0.9,4.5,2.3,5,4.6"/>
	<path class="st25" d="M226.6,403.3c-5.7-22.5-2.4-46.2,0.9-69.2c1.5-10.3,3-20.8,7.5-30.2c9.8-20.5,31.7-32,52.9-40.2
		c40.6-15.7,84.3-24.2,127.8-22.1c43.5,2,86.8,14.9,122.8,39.4c5.2,3.5,10.3,7.4,13.9,12.5c3.2,4.5,5,9.9,6.6,15.2
		c9.8,32.5,12.3,69-2.6,99.4"/>
	<path class="st25" d="M334.9,250.1c2.1,8,6.7,15.2,11.4,22c12.4,18,26.2,35.2,42.7,49.6c16.5,14.4,35.8,25.8,57,31.4
		c13.5,3.5,27.5,4.6,41.4,5.7c26.4,2,53.1,4,79.1-0.9"/>
	<path class="st25" d="M224,376.5c18.5-4.2,35.4-13.7,52-23c6.6-3.7,13.3-7.5,19.4-12.1c5.1-3.9,9.7-8.3,14.3-12.8
		c15.2-15,30.2-30.7,40.3-49.6"/>
	<path class="st25" d="M450.9,406c-1.9,3.1-2.9,6.7-3.6,10.3c-1.2,6.5-1.7,13.5,0.9,19.7c2.5,6.2,8.6,11.2,15.3,10.8
		c6.3-0.4,11.4-5.6,13.6-11.5c2.2-5.9,1.9-12.4,1.3-18.6c-0.4-4-1-8.1-2.5-11.9c-1.9-4.5-6-9.8-11.3-8.4
		C459.1,397.7,453.8,401.3,450.9,406z"/>
	<path class="st25" d="M332.1,406c1.9,3.1,2.9,6.7,3.6,10.3c1.2,6.5,1.7,13.5-0.9,19.7c-2.5,6.2-8.6,11.2-15.3,10.8
		c-6.3-0.4-11.4-5.6-13.6-11.5c-2.2-5.9-1.9-12.4-1.3-18.6c0.4-4,1-8.1,2.5-11.9c1.9-4.5,6-9.8,11.3-8.4
		C323.9,397.7,329.2,401.3,332.1,406z"/>
	<path class="st25" d="M375,475.6c1.2,3.1,2.6,6.5,5.4,8.2c2,1.2,4.7,1.5,6.9,0.6c2.2-0.9,4-2.8,4.6-5.2c0.5,3.8,4.8,5.7,8.6,5
		c3.8-0.8,6.6-4.3,7.3-8.1"/>
	<path class="st25" d="M238.6,295.6c-3.5,0.5-8.1,0.2-9-3.2c-0.3-1-0.1-2.1,0.1-3.2c3.6-21.8,7.2-43.7,10.9-65.5
		c-13.8-4.2-26.5-13.3-34.7-25.1c-8.2-11.8-12.6-26.1-13.5-40.5c-1.1-20,5.3-41.1,20.2-54.4c5.8-5.1,12.6-9,19.6-12.2
		c4.8-2.2,9.8-4.1,15.1-4.2c3.6,0,7.2,0.8,10.6,2c2.8,1,5.5,2.3,8,3.7c1-13.5,4.6-28.3,12.7-39.2s20.2-18.9,33.6-20.8
		c13.4-1.9,27.9,2.9,36.5,13.3c0.3-0.6,0.6-1.3,0.9-1.9c8.3-18.5,31.7-27.2,51.9-26.7c20.2,0.5,39.9,11.4,51,28.4
		c10-9.2,24-13.2,37.4-10.7s25.4,10.6,33.5,21.5s12.6,24.3,13.6,37.8c17.1-6.8,37.4-2.1,50.2,11.1c5.1,5.3,8.9,11.6,11.9,18.3
		c8.8,19.8,10.3,43.1,2.1,63.1s-26.4,36.1-47.8,39.7c2.8,6.2,3.6,12.7,4.4,19.5c1,8,1.9,16.1,2.9,24.1c0.5,4.6,1.1,9.1,1.5,13.7
		c0.2,2.5,0.3,5.2-0.9,7.4c-1.2,2.2-4.2,3.7-6.4,2.3"/>
	<path class="st25" d="M564.5,327.2c4.5,0.1,8.8,1.5,12.9,3.4c18.2,8.2,31.9,25,38,44.1s4.7,40-2.2,58.8
		c-5.6,15.4-15.3,29.9-29.3,38.4s-32.8,10.2-46.8,1.7c0.8,0.7,1.7,1.4,2.5,2.1"/>
	<path class="st25" d="M502.8,513.5c10.9,10.2,27.3,12.1,42.1,10c19.9-2.8,39.7-13,49.9-30.3c2.8-4.7,4.8-10,4.2-15.4
		c-0.6-4.7-2.5-9.3-5.5-13c0.3,0.2,0.5,0.6,0.4,1"/>
	<path class="st25" d="M332,532.8c-33.8,18-58.3,49.5-78,82.3c-8.3,13.8-16,28.5-18.3,44.4"/>
	<path class="st25" d="M459.4,533.5c17.8,8.3,34.1,19.9,47.7,34.1c4.9,5.1,9.5,10.5,14.1,15.9c9.7,11.5,19.5,23.1,27.5,35.9
		c8,12.8,14.2,26.9,16.1,41.9"/>
	<path class="st25" d="M361.6,540.9c5.9,10.1,16.4,17.3,27.9,19.2c11.5,1.9,23.8-1.6,32.6-9.3c2.5-2.2,4.8-4.9,5.2-8.2"/>
	<path class="st25" d="M439.7,538.5c-0.2,15.8-3,31.3-5.9,46.8"/>
	<path class="st25" d="M457.4,534.4c2,7.2,1.4,14.9,0.8,22.4c-0.9,10.9-1.7,21.8-2.6,32.7"/>
	<path class="st25" d="M333.5,533.7c0.4,11.2,0.9,22.4,1.3,33.7c0.2,4.4,0.3,8.8,0.9,13.2c0.5,4,1.3,7.9,2.4,11.7"/>
	<path class="st25" d="M347.8,535.9c0.5,3.8,0.9,7.6,1.4,11.5c1.6,13.3,3.3,26.7,8.1,39.2"/>
	<path class="st25" d="M316.1,656.2c3.5-19.5,7.1-39,10.6-58.4c11.6-5.4,23.3-10.4,35.9-12c5.5-0.7,11.1-0.7,16.7-0.7
		c12-0.1,24-0.1,36-0.2c5.7,0,11.4,0,17.1,0.4c11,0.9,21.8,3.5,31.9,7.9c6.7,19.8,10.9,40.7,11.9,61.6"/>
	<path class="st25" d="M58,697.8c72-27.1,150.1-32.8,226.9-36.4c150.6-7.2,304-7.1,449,34.6"/>
	<path class="st25" d="M477,400.1c-0.2-0.1-0.3,0.2-0.1,0.3c0.2,0.1,0.4,0,0.5-0.1c4.4-2.2,8.1-5.9,10.1-10.4"/>
	<path class="st25" d="M479.3,409.5c6.1-1.4,12.8-3.1,16.3-8.3"/>
	<path class="st25" d="M480,415c6.5,2.1,13.6,2.1,20,0"/>
	<path class="st25" d="M308.4,401.3c-2.8-1.1-4.8-3.5-6.7-5.8c-1.3-1.6-2.7-3.6-2-5.5"/>
	<path class="st25" d="M306.2,407.1c-3.5-0.8-6.9-1.8-10.3-2.9c-3.2-1-6.6-2.2-8.4-5"/>
	<path class="st25" d="M305,412.8c-6.2,2.7-13.3,3.4-20,1.9"/>
	<ellipse class="st25" cx="600.7" cy="557" rx="16.2" ry="16.6"/>
	<ellipse class="st25" cx="688.3" cy="568.8" rx="17.7" ry="18.1"/>
	<path class="st25" d="M584.1,558.8c-20.1,6.7-37.6,20.7-48.4,38.9"/>
	<path class="st25" d="M618.5,554.4c17.4-2.8,35.4-1.1,52,4.8"/>
	<path class="st25" d="M707.2,574.6c9.9,4.3,17.5,12.4,24.4,20.6c4,4.7,7.8,9.5,11,14.8c8.1,13.6,11.2,29.9,10.1,45.7
		c-1.1,15.8-6.3,31.1-13.7,45.1"/>
	<path class="st25" d="M558.5,631.7c2.1,1,4.3,2.1,6.6,1.8c3.4-0.4,6.1-3.5,9.5-3.6c4.4-0.2,7.2,4.5,10.4,7.5
		c4.3,4.1,10.7,5.9,16.5,4.6c7.4-1.7,13.4-7.9,20.9-8.8c4.7-0.6,9.5,1.1,13.3,3.8c4.2,3,7.6,7.4,12.5,9.1c6.3,2.1,13.1-0.9,18.6-4.5
		c1.8-1.2,3.7-2.5,5.8-2.9c8.7-1.9,16,10.1,24.7,8.1c5.1-1.2,8.9-7.3,14.1-6.4c2.5,0.4,4.4,2.3,6.5,3.8c2.1,1.5,5,2.5,7,1
		c2.8,0,4.5-0.4,7.2-1.1c7-1.8,13.9-5,18.3-10.7"/>
	<path class="st25" d="M625.2,585.3c-1.6,0.4-3.3,0.8-4.9,0.4c-1.6-0.3-3.2-1.5-3.5-3.1c-0.2-0.9,0-1.9,0.4-2.8
		c1.6-3.7,5.6-5.7,9.3-7.3c2.4-1.1,5.4-2.1,7.5-0.5C642.9,578.8,630.3,583.9,625.2,585.3z"/>
	<path class="st25" d="M594.5,593.1c-1.7,1.9-3,4.3-3.7,6.7c-2.6,9.1,8.4,13.1,12.1,4.9c1.2-2.7,2.4-8.2,1.4-11
		C602.6,588.8,597.4,589.9,594.5,593.1z"/>
	<path class="st25" d="M666.2,583.5c-1.9-1.1-4.6-0.9-6.3,0.6c-1.4,1.2-2.1,3.1-1.9,4.9c0.1,1.5,0.7,2.9,1.3,4.2
		c0.9,1.9,1.7,3.8,2.6,5.7c2.3,5.1,9.8,7.5,11.1,0.4C673.7,595.4,669.7,585.6,666.2,583.5z"/>
	<path class="st25" d="M705,596.8c-1-0.5-2.1-0.8-3.2-0.6c-2.7,0.4-4.4,3.4-4.3,6.1s1.4,5.2,2.6,7.7c0.9,1.9,1.8,3.8,3.3,5.2
		c4,3.6,8.6-0.1,9.1-4.6C713,605.7,709.5,598.9,705,596.8z"/>
	<path class="st25" d="M568.1,561.8c16.9-21,34.6-41.4,53-61.1c0.6-0.7,1.3-1.4,2.1-1.8c1.8-0.8,3.9-0.1,5.7,0.6
		c7.7,3.3,15,7.6,21.6,12.8c3.9,3.1,7.7,6.6,10.3,10.9c1,1.6,1.8,3.4,1.7,5.3c0,1.9-1,3.7-1.9,5.4c-3.1,5.8-6.3,11.6-9.4,17.4"/>
	<path class="st25" d="M639.9,502.6c11-13,17.3-29.3,21.7-45.7c4.4-16.4,7.2-33.2,12.1-49.5c7.5-24.9,21.2-49.4,43.9-62
		c4.1-2.3,8.4-4.1,13-5.2c8.1-1.9,16.8-1.4,24.6,1.5c14.8,5.5,25.7,19.4,29.2,34.8s0.2,31.9-7.4,45.7c-7.6,13.8-19.3,25.1-32.4,33.9
		c-14.2,9.5-30,16.4-44.4,25.6c-15.3,9.8-29,22.2-39.3,37.2"/>
	<path class="st25" d="M645.6,505.5c15.2-34,30.4-68.1,49.3-100.3c7-11.9,14.5-23.5,24.2-33.3c9.7-9.8,21.7-17.7,35.1-20.6
		c3.5-0.8,7.2-1.2,10.5,0.3c3,1.4,4.1,5.4,4.9,8.6c0.8,3.4,0.6,7,0.5,10.6c-0.5,8.4-0.9,16.9-4.1,24.6c-2.5,6.2-6.7,11.5-10.8,16.8
		c-6.5,8.2-13.2,16.4-20.5,23.9c-12.9,13.2-27.8,24.2-41.7,36.4c-13.8,12.2-26.9,25.9-34.6,42.7"/>
	<path class="st25" d="M651.5,509.7c28.9-51.1,66.4-96.6,103.7-141.9c3.8-4.6,6.7-10.2,10-15.1"/>
	<path class="st25" d="M172.6,667.2c0.7-7.3-1.9-14.6-4.8-21.3c-4.7-11-10.2-21.8-18.6-30.2c-8.4-8.4-20.2-14.2-32-13.1
		c-11.4,1-22,8.8-26.5,19.3c-8.8-5-20.1-6.6-29.5-2.9c-9.4,3.7-17,11.8-20,21.4c-2.8,8.8-1.9,18.3,0.4,27.2
		c2.7,10.5,7.5,20.7,15.6,27.8"/>
	<path class="st25" d="M287.7,564.7c-11.7-12.9-28.5-20.6-45.8-22.9s-35,0.7-51.4,6.6c-5.5,2-10.8,4.3-15.8,7.2
		c-10.7,6.2-19.7,15.1-26.1,25.6c-4.4,7.3-9.7,15.6-10.9,24.1"/>
	<path class="st25" d="M120.7,659.2c-0.1-2.7-1.3-5.4-3.1-7.4c-0.8-0.9-1.9-1.7-3.1-1.6c-1.4,0-2.6,1.2-3.3,2.5
		c-1.4,2.7-1.3,6.2,0.2,8.8c0.7,1.2,1.8,2.3,3.1,2.8c1.3,0.5,3,0.3,4-0.6c1.2-1.1,1.5-3,2.7-4.2"/>
	<path class="st25" d="M94.4,666.3c-0.5-1.9-1-3.9-2.2-5.4c-1.2-1.6-3.2-2.7-5.1-2.2c-1.6,0.4-2.7,1.8-3.3,3.3s-0.5,3.2-0.3,4.8
		c0.2,1.9,0.7,3.9,2.2,5.2c1.7,1.5,4.4,1.4,6.2,0.1c1.8-1.4,2.5-3.8,1.9-6"/>
	<path class="st25" d="M195.3,664.5c-2.6-9.8-5.1-19.6-7.7-29.4c-0.8-3-1.5-5.9-1.6-9c-0.1-3.4,0.9-7.2,3.7-9.2
		c3.8-2.6,9.2-0.7,12.1,2.8c2.9,3.5,3.9,8.2,4.8,12.6c2,10,4.1,20.1,6.1,30.1"/>
	<path class="st25" d="M240.1,639.6c-0.3-9.3-0.7-19.1-5.3-27.3c-1-1.7-2.1-3.4-3.9-4.3c-3.9-2-8.9,1.3-10.3,5.5s-0.4,8.7,0.6,13
		c2.8,11.9,5.6,23.7,8.4,35.6"/>
	<path class="st25" d="M241.7,570.6c-2.5-2.8-6.4-4.1-10-3.6c-2.2,0.3-4.5,1.8-4.5,4c0.1,1.3,1,2.4,1.9,3.2c1.6,1.4,3.4,2.5,5.4,3.2
		c1.6,0.5,3.3,0.8,4.9,0.5s3.1-1.4,3.7-3c0.6-1.6,0-3.5-1.5-4.3"/>
	<path class="st25" d="M205.1,568.5c-1.4,0.2-2.8,0.5-3.9,1.3c-1.1,0.8-2,2.1-1.8,3.5c0.2,1.1,0.9,1.9,1.8,2.5
		c2,1.3,4.5,1.4,6.8,1.4c1.6,0,3.3,0,4.9-0.6c2.7-1,4.8-4.4,2.8-7C213.6,566.8,208,568.1,205.1,568.5z"/>
	<path class="st25" d="M175.7,578.4c-0.9,0.9-1.7,2-2.1,3.2c-0.4,1.2-0.2,2.7,0.7,3.6c1.5,1.5,4.1,0.9,6.1,0.1
		c3.5-1.4,7.1-2.9,9.3-5.9c0.4-0.6,0.8-1.2,0.9-1.9C192.5,567.8,178,576,175.7,578.4z"/>
	<path class="st25" d="M38.5,391.8c-4.2,2.8-8.4,6.1-10.3,10.8c-2.8,6.9,0,14.7,2.9,21.6c11.8,27.9,24.9,55.4,40.8,81.2
		c6.3,10.2,13.8,20.8,25.1,24.6c9.6,3.2,20.2,1,29.8-2.2c11.9-3.9,23.9-9.5,31.8-19.3c2.8-3.4,5-7.3,5.8-11.6
		c1.3-6.7-1-13.5-3.4-19.9c-12.2-32.4-28.7-63.2-49.1-91.3c-7.9-10.8-16.3-22.5-30-15.6C67.4,377.6,52.1,382.9,38.5,391.8z"/>
	<path class="st25" d="M122,531.4c9,15.8,17.5,32,25.4,48.4"/>
	<path class="st25" d="M156.4,514.9c8.7,11.1,15.7,23.5,20.7,36.7"/>
	<path class="st25" d="M38.2,388.8c-6-7.5-8-18.8-2.9-26.9c4.4-7,13.8-10.4,21.7-7.8s13.4,10.9,12.8,19.1"/>
</g>
<g id="Capa_3">
	<path class="st26" d="M135.8,811.8c-4.2-26.1-8.5-52.2-12.7-78.4c-0.8-4.9-1.6-10-0.6-14.9c2-9.8,12.1-17.2,22.1-16.2
		c9.6,1,17.2,8.4,23.5,15.8c5.7,6.7,11.1,13.6,16.2,20.8c0.7,1,1.6,2.1,2.8,1.9c1.1-0.1,1.7-1.2,2.2-2.2c1.1-2.2,2.2-4.5,3.3-6.7
		c3.2-6.5,6.8-12.9,9.8-19.5c3-6.6,6.3-13.3,11.6-18.2c5.3-4.9,13-7.9,20-5.8c5.9,1.8,10.4,6.9,12.8,12.5s3.2,11.9,3.9,18
		c2.5,21.7,4.8,43.5,6.8,65.2c1.5,15.9,2.8,31.9,2.6,47.9c0,2.6-0.1,5.3-1.1,7.7c-2.7,6.9-11.3,9.6-18.6,8.9
		c-2.8-0.3-5.6-0.9-7.9-2.5s-3.8-4.5-3.4-7.2c3.8-21.8-8.4-43.5-10.3-65.5c-2.4,7.1-6.5,12.7-10.7,18.8c-3,4.3-7,8.5-12.1,8.8
		c-4,0.2-7.7-2-11-4.4c-5.8-4.2-11.3-9-16.2-14.2c2.5,18.6,4.9,36.2,7.4,54.8c1,7.1,1.5,15.5-3.7,20.3c-3.5,3.2-8.6,3.9-13.3,3.5
		c-4.5-0.3-9.1-1.6-12.4-4.7c-4.1-3.8-5.4-9.6-6.5-15C138.5,832.6,137.3,820.8,135.8,811.8z"/>
	<path class="st26" d="M358.3,803.8c-9.3-0.1-17.6,0.3-26.9,0.9c-2.2,5.7-4.3,11.4-6.5,17.1c-2.2,5.8-4.4,11.7-8,16.8
		c-3.5,5.1-8.6,9.5-14.6,10.9c-6.1,1.5-13.1-0.5-16.6-5.7c-3.9-5.9-2.4-13.7-0.7-20.6c8.7-35.4,17.5-70.8,26.2-106.3
		c2.3-9.1,4.9-19,12.3-24.8c6.7-5.3,16.7-6,24.1-1.7c3.8,2.2,5.7,4.9,7.9,8.7c12.8,22.4,21,47.1,30.6,71.1
		c5.4,13.5,11.2,26.8,17.4,39.9c2.4,5,4.8,10.1,4.8,15.6c-0.1,7-4.6,13.6-11,16.4s-14.3,1.4-19.5-3.2c-4.1-3.6-6.4-8.7-8.5-13.6
		c-2.9-6.6-5.9-13.3-8.8-19.9c-0.2-0.5-0.6-1.1-1.1-1C358.7,804.6,358,804.3,358.3,803.8z"/>
	<path class="st26" d="M334,769.2c2.4-6,1.8-13.2,5.4-18.6c3.1,7.3,6.4,13.1,9.5,20.4C344.6,770.6,338.3,769.9,334,769.2z"/>
	<path class="st26" d="M463.5,682.4c-7.1-0.2-15-0.1-20.5,4.5c-7,5.8-7.5,16.3-7.4,25.4c0.4,33.7,0.7,67.5,1.1,101.2
		c0.1,7.4,0.4,15.4,5.2,21.1c3.5,4.1,9.1,6.2,14.4,5.7c5.4-0.6,10.3-3.8,13.2-8.3c3.7-5.9,3.9-13.2,3.9-20.2
		c0-5.2,0.1-10.5,0.1-15.7c6.2,8.9,12,16.7,18.2,25.6c4.6,6.6,9.5,13.4,16.7,16.8c7.7,3.6,17.4,2.5,24.1-2.7c4.4-3.5,7.6-9,6.9-14.6
		c-0.6-4.8-3.7-8.8-7.1-12.2c-3.4-3.6-7.1-6.8-11-9.8c-4.2-3.2-8.7-6-12.5-9.7c-3.8-3.7-6.9-8.4-7.4-13.7
		c16.7-7.4,28.2-24.9,29-43.1c0.8-18.2-10.1-36.6-26.7-44.1c-5.9-2.6-12.3-4-18.7-5C478.4,682.4,470.4,682.7,463.5,682.4z"/>
	<path class="st26" d="M472.6,744.2c0,0.2-0.3,0.3-0.5,0.2c-0.2-0.2-0.2-0.4-0.2-0.6c-0.2-8.5,0-17,0.6-25.5
		c0.6,0.6,0.6-0.7,1.5-0.7c2.1-0.1,4.2-0.2,6.2-0.2c1.9-0.1,3.9-0.1,5.7,0.5c2.1,0.7,3.8,2.3,5,4.1c3.2,4.8,3.1,11.4,0.2,16.3
		c-3,4.9-8.6,8-14.3,8.3C476.2,746.5,472.7,744.8,472.6,744.2z"/>
	<path class="st26" d="M606.3,793.4c-2.4,11.6-3.7,23.3-4.1,35.1c-0.2,9,0.6,19,7.2,25c6.3,5.7,17,5.7,23.2-0.1
		c5-4.7,6.7-12,7.4-18.9c1.5-15-0.3-31.1,7.1-44.2c2.6-4.5,6.1-8.4,9.4-12.3c10.7-12.4,20.5-25.6,29.3-39.4c4.8-7.6,9.5-16.6,7-25.3
		c-2.6-9.3-14.3-14.8-23.1-11c-3.7,1.6-6.7,4.4-9.4,7.4c-8,8.5-14.6,18.1-21.2,27.7c-3,4.4-6,8.7-9,13.1
		c-3.3-5.6-7.8-11.1-11.1-16.7c-8.3-14.1-16.7-28.2-25.9-41.8c-1.8-2.6-3.7-5.3-6.5-6.7c-2.9-1.5-6.2-1.4-9.5-1.3
		c-3.1,0.1-6.4,0.3-8.8,2.2c-1.4,1.2-2.3,2.8-3.2,4.4c-2.7,4.8-5.4,10-5,15.6c0.3,3.7,2,7.1,3.6,10.3
		C576.4,741.4,591,770.3,606.3,793.4z"/>
	<path class="st26" d="M200,874.9c-0.2,16.5-0.4,32.9-0.6,49.4c0,2,0,4,0.9,5.7c1.4,2.5,4.4,3.8,7.3,4.5c5.3,1.3,10.9,1.3,16.4,1
		c4.7-0.2,9.5-0.8,13.5-3c5.2-2.9,8.3-8.5,8.4-14.2c0.1-5.7-2.8-11.2-7.2-15c6.9-2.9,8.9-12.3,5.6-18.8c-3.2-6.5-10.6-10.4-18-11.7
		s-15.1-0.3-22.6,0.7C202.6,873.7,201.1,874.8,200,874.9z"/>
	<path class="st26" d="M289.9,874c-9.5,14.4-15.8,30.5-21.3,46.7c-0.9,2.8-1.9,5.7-1.6,8.6c0.3,2.9,2.2,5.9,5.2,6.6
		c3.1,0.8,6.4-1.1,8.1-3.6c1.8-2.5,2.3-5.6,2.8-8.6c7.6-0.1,14.8-0.6,22.3-0.1c1.4,4.1,3.4,8.2,7.1,10.6s10.2,1.5,11.4-2.7
		c0.5-1.9-0.2-4-0.9-5.9c-3.1-8.1-6.2-16.3-9.4-24.4c-3-7.9-6.1-15.8-10.4-23.1c-1.5-2.4-3.2-4.9-5.9-6.2
		C294.8,870.7,291.5,871.6,289.9,874z"/>
	<path class="st26" d="M214.4,896c-0.3-3.3-0.4-6.7-0.3-10.1c2.7-0.1,4.9-0.8,7.5-0.5c3.1,0.3,6.7,1.7,7.4,4.5
		c0.7,2.7-1.7,5.5-4.5,6.4C221.8,897.3,217.4,896.5,214.4,896z"/>
	<path class="st26" d="M215.4,920.7c-0.4,0.3-0.6,0.7-0.7,1.2c0-3.7-0.2-7.3-0.5-11c2.4,0,4.7-0.6,7.1-0.4c2.4,0.1,4.9,0.8,6.7,2.4
		c1.8,1.6,2.6,4.2,1.4,6.3c-1.1,1.9-3.6,2.8-5.9,3.1C221.6,922.6,217.4,921,215.4,920.7z"/>
	<path class="st26" d="M289.7,909.4c2.5-5.3,4.4-10.9,5.5-16.6c1.7,5.8,3.8,11.5,6.3,17C298.2,910.3,293,910.2,289.7,909.4z"/>
	<path class="st26" d="M360.7,892.8c-0.6-3-0.2-6.1-0.1-9.2c0.1-3.1-0.2-6.3-2.1-8.8c-1.9-2.5-5.7-3.9-8.5-2.3
		c-3,1.7-3.3,5.5-3.3,8.8c0,14,0,28-0.1,42c0,3,0,6.1,1.4,8.8c1.4,2.7,4.5,4.8,7.6,4.2c2.3-0.5,4-2.4,4.9-4.5
		c2.7-6.1-0.4-13.8,3.4-19.3c1.3-0.4,2.7,0.2,3.8,1.1c2.8,2.1,4.6,5.2,6.2,8.2c1.6,3,3.1,6.2,5.3,8.8c2.3,2.6,5.5,4.7,9.1,4.8
		s7.3-2.5,7.6-5.8c0.2-2.3-1.2-4.4-2.5-6.4c-5.3-7.7-11-15.2-17.1-22.3c5.1-3.8,9.2-9,13.2-13.8c1.9-2.2,3.8-4.6,4.5-7.4
		s-0.2-6.2-2.8-7.6c-2.4-1.3-5.5-0.8-7.8,0.6c-2.3,1.4-4,3.5-5.8,5.5C373.2,883.3,366.2,888.6,360.7,892.8z"/>
	<path class="st26" d="M460,872.7c-9.1-0.8-18.2-1.1-27.4-0.9c-3.9,0.1-8.4,0.6-10.5,3.7c-1.1,1.7-1.2,3.7-1.3,5.6
		c-0.7,14.9-0.2,29.9,1.5,44.8c0.2,1.6,0.4,3.1,1.2,4.5c1.6,2.8,5.2,4,8.6,4.6c8.5,1.6,17.5,1.3,25.8-0.9c1.8-0.5,3.7-1.1,4.8-2.5
		c1.7-2.2,0.7-5.5-1.4-7.3s-5.1-2.4-8-2.7c-3.9-0.4-7.9-0.4-11.8,0c-1.1,0.1-2.3,0.3-3.4,0c-1.9-0.5-3.3-2.2-3.8-4s-0.4-3.7-0.2-5.6
		c-0.2,0.5,0.4,1.1,1,1c2.9-0.7,4.6-1.5,7.6-1.7c2.3-0.1,4.6-0.3,6.7-1.2c2.2-1,3.9-2.9,4.6-5.2c0.1-0.5,0.2-0.9,0.1-1.4
		c-0.1-0.4-0.3-0.7-0.6-1.1c-1.2-1.6-2.5-3.2-4.3-4c-0.9-0.4-1.9-0.6-2.9-0.7c-3.5-0.5-7-0.6-10.5-0.3c-0.1-2.5-1.2-5.8-1.3-8.3
		c0-1.1,0-2.4,1-3c0.6-0.4,1.4-0.4,2.2-0.4c4.1,0.1,8.2,0.2,12.3,0.3c4.3,0.1,9.3-0.1,12.1-3.2C464.2,880.2,462.8,875,460,872.7z"/>
	<path class="st26" d="M486.9,877.2c0,15.6,0,31.3,0.1,46.9c0,3.1,0,6.3,1.5,9c1.5,2.7,5,4.8,8,3.8c3.2-1,4.5-4.6,4.9-7.7
		c0.5-3.1,0.6-6.2,0.3-9.3c-0.2-1.7-0.4-3.5,0.7-4.8c1.3-1.6,3.9-1.7,5.8-0.7c1.9,1,3.1,2.7,4.3,4.3c2.5,3.5,5,7,7.5,10.5
		c1.4,2,2.9,4,5,5.4c2.1,1.3,5,1.8,7.2,0.5c2.1-1.3,2.9-4,2.5-6.4c-0.4-2.4-1.8-4.5-3.1-6.5c-2.8-4.3-5.6-8.6-8.4-13
		c6.5-3.5,10.4-10.2,10.5-17.3c0-7-4.4-14-11.2-17c-5.8-2.6-12.5-2.2-19-1.8c-4.6,0.3-9.1,0.6-13.7,0.9
		C488.3,874.1,486.9,875.7,486.9,877.2z"/>
	<path class="st26" d="M501.7,899c-0.6-0.4-0.7-1.2-0.7-1.9c0-3.3,0-6.5,0-9.8c0,0.6,1.4,0,2-0.2c2.7-0.8,5.6-1.2,8.4-0.7
		s5.4,2.2,6.4,4.7c1,2.5,0,5.7-2.6,6.8c-1.1,0.5-2.3,0.5-3.4,0.6C509.2,898.7,504.2,898.8,501.7,899z"/>
	<path class="st26" d="M574.4,911.3c0.3,4.3,0.6,8.7,1,13c0.2,2.8,0.5,5.8,2,8.2c1.5,2.4,4.7,4.2,7.5,3.3c3.2-1.1,4.3-4.8,4.6-8
		c0.6-7.4-0.9-15.2,2.4-22c1.1-2.2,2.7-4.2,4.2-6.2c2.5-3.1,4.9-6.3,7.4-9.4c2.4-3.1,5-6.4,5.1-10.3s-3.3-8.1-7.3-7.4
		c-2.5,0.4-4.2,2.5-5.7,4.4c-4.3,5.3-8.5,10.7-12.8,16c-4.1-6.3-8.7-12.5-14-18c-1.6-1.7-3.6-3.5-6-3.7c-3.7-0.4-6.7,3.2-7,6.6
		s1.6,6.7,3.6,9.7c2,3,4.3,5.9,6.7,8.6C570.1,900.4,574,905.8,574.4,911.3z"/>
</g>
</svg>
